<svg width="50" height="50" viewBox="0 0 50 50" fill="none" xmlns="http://www.w3.org/2000/svg">
<circle cx="25" cy="25" r="24.5" fill="#A8AAB9" stroke="#D9D9D9"/>
<path d="M30.9336 22.5C30.9336 21.3257 30.5853 20.1777 29.933 19.2013C29.2805 18.2249 28.3532 17.4639 27.2682 17.0145C26.1833 16.5651 24.9895 16.4475 23.8377 16.6766C22.686 16.9057 21.628 17.4712 20.7976 18.3016C19.9672 19.132 19.4017 20.19 19.1727 21.3417C18.9436 22.4935 19.0612 23.6872 19.5106 24.7722C19.96 25.8571 20.721 26.7845 21.6973 27.4368C22.6738 28.0893 23.8217 28.4375 24.9961 28.4375C26.5708 28.4375 28.0811 27.812 29.1946 26.6985C30.3081 25.585 30.9336 24.0747 30.9336 22.5ZM20.9336 22.5C20.9336 21.6966 21.1718 20.9111 21.6182 20.243C22.0646 19.575 22.6991 19.0542 23.4415 18.7468C24.1837 18.4393 25.0006 18.3588 25.7886 18.5156C26.5767 18.6723 27.3006 19.0592 27.8687 19.6273C28.4368 20.1956 28.8237 20.9195 28.9806 21.7075C29.1373 22.4955 29.0568 23.3123 28.7493 24.0547C28.4418 24.797 27.9212 25.4315 27.2531 25.8778C26.585 26.3242 25.7996 26.5625 24.9961 26.5625C23.9186 26.5625 22.8853 26.1345 22.1235 25.3726C21.3616 24.6107 20.9336 23.5775 20.9336 22.5ZM39.9961 37.8125H25.9336V34.6485C29.0753 34.4061 32.0011 32.9562 34.097 30.6032C36.1928 28.2501 37.2958 25.1767 37.1746 22.028C37.0532 18.8792 35.7171 15.8998 33.4465 13.7149C31.1758 11.5301 28.1472 10.3096 24.9961 10.3096C21.845 10.3096 18.8163 11.5301 16.5457 13.7149C14.2751 15.8998 12.9389 18.8792 12.8176 22.028C12.6963 25.1767 13.7993 28.2501 15.8952 30.6032C17.9911 32.9562 20.9168 34.4061 24.0586 34.6485V37.8125H9.99609C9.74746 37.8125 9.50899 37.9113 9.33318 38.0871C9.15737 38.263 9.05859 38.5013 9.05859 38.75C9.05859 38.9987 9.15737 39.2371 9.33318 39.413C9.50899 39.5887 9.74746 39.6875 9.99609 39.6875H39.9961C40.2447 39.6875 40.4832 39.5887 40.659 39.413C40.8348 39.2371 40.9336 38.9987 40.9336 38.75C40.9336 38.5013 40.8348 38.263 40.659 38.0871C40.4832 37.9113 40.2447 37.8125 39.9961 37.8125ZM14.6836 22.5C14.6836 20.4603 15.2884 18.4666 16.4216 16.7707C17.5547 15.0748 19.1653 13.753 21.0497 12.9725C22.9341 12.192 25.0076 11.9878 27.008 12.3857C29.0083 12.7836 30.8458 13.7658 32.2881 15.208C33.7303 16.6502 34.7125 18.4877 35.1105 20.4881C35.5083 22.4886 35.3041 24.5621 34.5236 26.4465C33.7431 28.3308 32.4213 29.9413 30.7255 31.0746C29.0295 32.2077 27.0357 32.8125 24.9961 32.8125C22.2621 32.8092 19.641 31.7217 17.7077 29.7883C15.7745 27.8551 14.6869 25.2341 14.6836 22.5Z" fill="#343330"/>
</svg>
