<svg width="596" height="320" viewBox="0 0 596 320" fill="none" xmlns="http://www.w3.org/2000/svg">
<mask id="path-1-outside-1_279_20" maskUnits="userSpaceOnUse" x="15" y="6" width="582" height="310" fill="black">
<rect fill="white" x="15" y="6" width="582" height="310"/>
<path d="M95.3772 6.99999H132.757V154H95.3772V97.51H54.0072V154H16.4172V6.99999H54.0072V61.39H95.3772V6.99999ZM224.535 49H259.395V154H224.535V144.34C217.395 152.74 207.455 156.94 194.715 156.94C180.715 156.94 168.955 151.69 159.435 141.19C150.055 130.55 145.365 117.32 145.365 101.5C145.365 85.68 150.055 72.52 159.435 62.02C168.955 51.38 180.715 46.06 194.715 46.06C207.455 46.06 217.395 50.26 224.535 58.66V49ZM186.525 118.09C190.585 122.29 195.905 124.39 202.485 124.39C209.065 124.39 214.385 122.29 218.445 118.09C222.505 113.89 224.535 108.36 224.535 101.5C224.535 94.64 222.505 89.11 218.445 84.91C214.385 80.71 209.065 78.61 202.485 78.61C195.905 78.61 190.585 80.71 186.525 84.91C182.465 89.11 180.435 94.64 180.435 101.5C180.435 108.36 182.465 113.89 186.525 118.09ZM292.205 37.66V8.26H360.035V37.66H292.205ZM350.165 49H377.045V154H343.025V104.86L302.285 154H275.405V49H309.425V98.14L350.165 49ZM479.961 49V82.39H449.931V154H415.071V82.39H384.621V49H479.961ZM562.224 49H589.104V154H555.084V104.86L514.344 154H487.464V49H521.484V98.14L562.224 49ZM94.1746 314.94C78.2146 314.94 64.9146 309.62 54.2746 298.98C43.6346 288.34 38.3146 275.18 38.3146 259.5C38.3146 243.82 43.6346 230.66 54.2746 220.02C64.9146 209.38 78.2146 204.06 94.1746 204.06C104.535 204.06 113.915 206.51 122.315 211.41C130.855 216.31 137.435 222.89 142.055 231.15L112.235 248.37C108.455 241.51 102.365 238.08 93.9646 238.08C88.0846 238.08 83.1846 240.11 79.2646 244.17C75.3446 248.09 73.3846 253.2 73.3846 259.5C73.3846 265.8 75.3446 270.98 79.2646 275.04C83.1846 278.96 88.0846 280.92 93.9646 280.92C102.645 280.92 108.735 277.42 112.235 270.42L142.055 287.64C137.435 296.04 130.855 302.69 122.315 307.59C113.915 312.49 104.535 314.94 94.1746 314.94ZM229.716 258.45C239.516 263.07 244.416 270.84 244.416 281.76C244.416 291 241.266 298.35 234.966 303.81C228.666 309.27 219.566 312 207.666 312H149.076V207H204.096C215.856 207 224.886 209.73 231.186 215.19C237.486 220.65 240.636 228 240.636 237.24C240.636 246.48 236.996 253.55 229.716 258.45ZM198.846 233.04H182.466V246.9H198.846C204.446 246.9 207.246 244.66 207.246 240.18C207.246 235.42 204.446 233.04 198.846 233.04ZM201.576 285.54C207.036 285.54 209.766 283.09 209.766 278.19C209.766 273.57 207.036 271.26 201.576 271.26H182.466V285.54H201.576ZM305.008 314.94C289.468 314.94 276.238 309.62 265.318 298.98C254.398 288.2 248.938 275.04 248.938 259.5C248.938 243.96 254.398 230.87 265.318 220.23C276.238 209.45 289.468 204.06 305.008 204.06C320.688 204.06 333.918 209.45 344.698 220.23C355.618 230.87 361.078 243.96 361.078 259.5C361.078 275.04 355.618 288.2 344.698 298.98C333.918 309.62 320.688 314.94 305.008 314.94ZM305.008 281.34C311.168 281.34 316.208 279.31 320.128 275.25C324.188 271.19 326.218 265.94 326.218 259.5C326.218 253.06 324.188 247.81 320.128 243.75C316.208 239.69 311.168 237.66 305.008 237.66C298.988 237.66 293.948 239.69 289.888 243.75C285.968 247.81 284.008 253.06 284.008 259.5C284.008 265.94 285.968 271.19 289.888 275.25C293.948 279.31 298.988 281.34 305.008 281.34ZM446.97 207H473.85V312H439.83V262.86L399.09 312H372.21V207H406.23V256.14L446.97 207ZM595.036 312H555.556L537.286 286.17L519.016 312H479.746L517.756 258.45L481.216 207H520.486L537.286 230.73L554.086 207H593.566L557.026 258.45L595.036 312Z"/>
</mask>
<path d="M95.3772 6.99999V5.99999H94.3772V6.99999H95.3772ZM132.757 6.99999H133.757V5.99999H132.757V6.99999ZM132.757 154V155H133.757V154H132.757ZM95.3772 154H94.3772V155H95.3772V154ZM95.3772 97.51H96.3772V96.51H95.3772V97.51ZM54.0072 97.51V96.51H53.0072V97.51H54.0072ZM54.0072 154V155H55.0072V154H54.0072ZM16.4172 154H15.4172V155H16.4172V154ZM16.4172 6.99999V5.99999H15.4172V6.99999H16.4172ZM54.0072 6.99999H55.0072V5.99999H54.0072V6.99999ZM54.0072 61.39H53.0072V62.39H54.0072V61.39ZM95.3772 61.39V62.39H96.3772V61.39H95.3772ZM95.3772 7.99999H132.757V5.99999H95.3772V7.99999ZM131.757 6.99999V154H133.757V6.99999H131.757ZM132.757 153H95.3772V155H132.757V153ZM96.3772 154V97.51H94.3772V154H96.3772ZM95.3772 96.51H54.0072V98.51H95.3772V96.51ZM53.0072 97.51V154H55.0072V97.51H53.0072ZM54.0072 153H16.4172V155H54.0072V153ZM17.4172 154V6.99999H15.4172V154H17.4172ZM16.4172 7.99999H54.0072V5.99999H16.4172V7.99999ZM53.0072 6.99999V61.39H55.0072V6.99999H53.0072ZM54.0072 62.39H95.3772V60.39H54.0072V62.39ZM96.3772 61.39V6.99999H94.3772V61.39H96.3772ZM224.535 49V48H223.535V49H224.535ZM259.395 49H260.395V48H259.395V49ZM259.395 154V155H260.395V154H259.395ZM224.535 154H223.535V155H224.535V154ZM224.535 144.34H225.535V141.619L223.773 143.692L224.535 144.34ZM159.435 141.19L158.685 141.851L158.695 141.862L159.435 141.19ZM159.435 62.02L158.69 61.3532L158.69 61.3538L159.435 62.02ZM224.535 58.66L223.773 59.3076L225.535 61.3805V58.66H224.535ZM218.445 118.09L217.726 117.395L217.726 117.395L218.445 118.09ZM218.445 84.91L217.726 85.605L217.726 85.605L218.445 84.91ZM224.535 50H259.395V48H224.535V50ZM258.395 49V154H260.395V49H258.395ZM259.395 153H224.535V155H259.395V153ZM225.535 154V144.34H223.535V154H225.535ZM223.773 143.692C216.854 151.833 207.213 155.94 194.715 155.94V157.94C207.698 157.94 217.937 153.647 225.297 144.988L223.773 143.692ZM194.715 155.94C181.002 155.94 169.509 150.812 160.176 140.518L158.695 141.862C168.401 152.568 180.429 157.94 194.715 157.94V155.94ZM160.186 140.529C150.985 130.093 146.365 117.107 146.365 101.5H144.365C144.365 117.533 149.125 131.007 158.685 141.851L160.186 140.529ZM146.365 101.5C146.365 85.8932 150.985 72.98 160.181 62.6862L158.69 61.3538C149.125 72.06 144.365 85.4668 144.365 101.5H146.365ZM160.181 62.6868C169.515 52.254 181.006 47.06 194.715 47.06V45.06C180.425 45.06 168.396 50.506 158.69 61.3532L160.181 62.6868ZM194.715 47.06C207.213 47.06 216.854 51.1672 223.773 59.3076L225.297 58.0123C217.937 49.3528 207.698 45.06 194.715 45.06V47.06ZM225.535 58.66V49H223.535V58.66H225.535ZM185.806 118.785C190.079 123.205 195.672 125.39 202.485 125.39V123.39C196.139 123.39 191.091 121.375 187.244 117.395L185.806 118.785ZM202.485 125.39C209.299 125.39 214.891 123.205 219.164 118.785L217.726 117.395C213.879 121.375 208.832 123.39 202.485 123.39V125.39ZM219.164 118.785C223.436 114.366 225.535 108.571 225.535 101.5H223.535C223.535 108.149 221.575 113.414 217.726 117.395L219.164 118.785ZM225.535 101.5C225.535 94.4291 223.436 88.6336 219.164 84.215L217.726 85.605C221.575 89.5864 223.535 94.8509 223.535 101.5H225.535ZM219.164 84.215C214.891 79.7946 209.299 77.61 202.485 77.61V79.61C208.832 79.61 213.879 81.6254 217.726 85.605L219.164 84.215ZM202.485 77.61C195.672 77.61 190.079 79.7946 185.806 84.215L187.244 85.605C191.091 81.6254 196.139 79.61 202.485 79.61V77.61ZM185.806 84.215C181.535 88.6336 179.435 94.4291 179.435 101.5H181.435C181.435 94.8509 183.396 89.5864 187.244 85.605L185.806 84.215ZM179.435 101.5C179.435 108.571 181.535 114.366 185.806 118.785L187.244 117.395C183.396 113.414 181.435 108.149 181.435 101.5H179.435ZM292.205 37.66H291.205V38.66H292.205V37.66ZM292.205 8.26V7.26H291.205V8.26H292.205ZM360.035 8.26H361.035V7.26H360.035V8.26ZM360.035 37.66V38.66H361.035V37.66H360.035ZM350.165 49V48H349.695L349.395 48.3618L350.165 49ZM377.045 49H378.045V48H377.045V49ZM377.045 154V155H378.045V154H377.045ZM343.025 154H342.025V155H343.025V154ZM343.025 104.86H344.025V102.087L342.255 104.222L343.025 104.86ZM302.285 154V155H302.755L303.054 154.638L302.285 154ZM275.405 154H274.405V155H275.405V154ZM275.405 49V48H274.405V49H275.405ZM309.425 49H310.425V48H309.425V49ZM309.425 98.14H308.425V100.913L310.194 98.7782L309.425 98.14ZM293.205 37.66V8.26H291.205V37.66H293.205ZM292.205 9.26H360.035V7.26H292.205V9.26ZM359.035 8.26V37.66H361.035V8.26H359.035ZM360.035 36.66H292.205V38.66H360.035V36.66ZM350.165 50H377.045V48H350.165V50ZM376.045 49V154H378.045V49H376.045ZM377.045 153H343.025V155H377.045V153ZM344.025 154V104.86H342.025V154H344.025ZM342.255 104.222L301.515 153.362L303.054 154.638L343.794 105.498L342.255 104.222ZM302.285 153H275.405V155H302.285V153ZM276.405 154V49H274.405V154H276.405ZM275.405 50H309.425V48H275.405V50ZM308.425 49V98.14H310.425V49H308.425ZM310.194 98.7782L350.934 49.6382L349.395 48.3618L308.655 97.5018L310.194 98.7782ZM479.961 49H480.961V48H479.961V49ZM479.961 82.39V83.39H480.961V82.39H479.961ZM449.931 82.39V81.39H448.931V82.39H449.931ZM449.931 154V155H450.931V154H449.931ZM415.071 154H414.071V155H415.071V154ZM415.071 82.39H416.071V81.39H415.071V82.39ZM384.621 82.39H383.621V83.39H384.621V82.39ZM384.621 49V48H383.621V49H384.621ZM478.961 49V82.39H480.961V49H478.961ZM479.961 81.39H449.931V83.39H479.961V81.39ZM448.931 82.39V154H450.931V82.39H448.931ZM449.931 153H415.071V155H449.931V153ZM416.071 154V82.39H414.071V154H416.071ZM415.071 81.39H384.621V83.39H415.071V81.39ZM385.621 82.39V49H383.621V82.39H385.621ZM384.621 50H479.961V48H384.621V50ZM562.224 49V48H561.754L561.454 48.3618L562.224 49ZM589.104 49H590.104V48H589.104V49ZM589.104 154V155H590.104V154H589.104ZM555.084 154H554.084V155H555.084V154ZM555.084 104.86H556.084V102.087L554.314 104.222L555.084 104.86ZM514.344 154V155H514.814L515.113 154.638L514.344 154ZM487.464 154H486.464V155H487.464V154ZM487.464 49V48H486.464V49H487.464ZM521.484 49H522.484V48H521.484V49ZM521.484 98.14H520.484V100.913L522.253 98.7782L521.484 98.14ZM562.224 50H589.104V48H562.224V50ZM588.104 49V154H590.104V49H588.104ZM589.104 153H555.084V155H589.104V153ZM556.084 154V104.86H554.084V154H556.084ZM554.314 104.222L513.574 153.362L515.113 154.638L555.853 105.498L554.314 104.222ZM514.344 153H487.464V155H514.344V153ZM488.464 154V49H486.464V154H488.464ZM487.464 50H521.484V48H487.464V50ZM520.484 49V98.14H522.484V49H520.484ZM522.253 98.7782L562.993 49.6382L561.454 48.3618L520.714 97.5018L522.253 98.7782ZM54.2746 298.98L53.5675 299.687L53.5675 299.687L54.2746 298.98ZM54.2746 220.02L53.5675 219.313L53.5675 219.313L54.2746 220.02ZM122.315 211.41L121.811 212.274L121.817 212.277L122.315 211.41ZM142.055 231.15L142.555 232.016L143.409 231.523L142.927 230.662L142.055 231.15ZM112.235 248.37L111.359 248.853L111.851 249.746L112.735 249.236L112.235 248.37ZM79.2646 244.17L79.9717 244.877L79.9779 244.871L79.984 244.865L79.2646 244.17ZM79.2646 275.04L78.5452 275.735L78.5513 275.741L78.5575 275.747L79.2646 275.04ZM112.235 270.42L112.735 269.554L111.815 269.023L111.34 269.973L112.235 270.42ZM142.055 287.64L142.931 288.122L143.403 287.264L142.555 286.774L142.055 287.64ZM122.315 307.59L121.817 306.723L121.811 306.726L122.315 307.59ZM94.1746 313.94C78.462 313.94 65.4219 308.713 54.9817 298.273L53.5675 299.687C64.4073 310.527 77.9672 315.94 94.1746 315.94V313.94ZM54.9817 298.273C44.5379 287.829 39.3146 274.927 39.3146 259.5H37.3146C37.3146 275.433 42.7313 288.851 53.5675 299.687L54.9817 298.273ZM39.3146 259.5C39.3146 244.073 44.5379 231.171 54.9817 220.727L53.5675 219.313C42.7313 230.149 37.3146 243.567 37.3146 259.5H39.3146ZM54.9817 220.727C65.4219 210.287 78.462 205.06 94.1746 205.06V203.06C77.9672 203.06 64.4073 208.473 53.5675 219.313L54.9817 220.727ZM94.1746 205.06C104.37 205.06 113.574 207.469 121.811 212.274L122.818 210.546C114.255 205.551 104.7 203.06 94.1746 203.06V205.06ZM121.817 212.277C130.207 217.091 136.654 223.543 141.182 231.638L142.927 230.662C138.215 222.237 131.503 215.529 122.812 210.543L121.817 212.277ZM141.555 230.284L111.735 247.504L112.735 249.236L142.555 232.016L141.555 230.284ZM113.11 247.887C111.142 244.315 108.549 241.598 105.323 239.781C102.101 237.966 98.3019 237.08 93.9646 237.08V239.08C98.0273 239.08 101.474 239.909 104.341 241.524C107.205 243.137 109.547 245.565 111.359 248.853L113.11 247.887ZM93.9646 237.08C87.826 237.08 82.6623 239.211 78.5452 243.475L79.984 244.865C83.7069 241.009 88.3432 239.08 93.9646 239.08V237.08ZM78.5575 243.463C74.4238 247.597 72.3846 252.974 72.3846 259.5H74.3846C74.3846 253.426 76.2654 248.583 79.9717 244.877L78.5575 243.463ZM72.3846 259.5C72.3846 266.026 74.4236 271.466 78.5452 275.735L79.984 274.345C76.2656 270.494 74.3846 265.574 74.3846 259.5H72.3846ZM78.5575 275.747C82.6773 279.867 87.8372 281.92 93.9646 281.92V279.92C88.332 279.92 83.6919 278.053 79.9717 274.333L78.5575 275.747ZM93.9646 281.92C98.4386 281.92 102.312 281.017 105.54 279.162C108.775 277.303 111.302 274.522 113.129 270.867L111.34 269.973C109.668 273.318 107.399 275.787 104.544 277.428C101.682 279.073 98.1706 279.92 93.9646 279.92V281.92ZM111.735 271.286L141.555 288.506L142.555 286.774L112.735 269.554L111.735 271.286ZM141.178 287.158C136.649 295.393 130.202 301.911 121.817 306.723L122.812 308.457C131.507 303.469 138.22 296.687 142.931 288.122L141.178 287.158ZM121.811 306.726C113.574 311.531 104.37 313.94 94.1746 313.94V315.94C104.7 315.94 114.255 313.449 122.818 308.454L121.811 306.726ZM229.716 258.45L229.158 257.62L227.697 258.604L229.29 259.355L229.716 258.45ZM234.966 303.81L234.312 303.054L234.312 303.054L234.966 303.81ZM149.076 312H148.076V313H149.076V312ZM149.076 207V206H148.076V207H149.076ZM231.186 215.19L231.841 214.434L231.841 214.434L231.186 215.19ZM182.466 233.04V232.04H181.466V233.04H182.466ZM182.466 246.9H181.466V247.9H182.466V246.9ZM182.466 271.26V270.26H181.466V271.26H182.466ZM182.466 285.54H181.466V286.54H182.466V285.54ZM229.29 259.355C234.049 261.598 237.564 264.579 239.896 268.276C242.227 271.973 243.416 276.453 243.416 281.76H245.416C245.416 276.147 244.156 271.282 241.587 267.209C239.019 263.136 235.184 259.922 230.143 257.545L229.29 259.355ZM243.416 281.76C243.416 290.745 240.367 297.806 234.312 303.054L235.621 304.566C242.166 298.894 245.416 291.255 245.416 281.76H243.416ZM234.312 303.054C228.258 308.301 219.427 311 207.666 311V313C219.706 313 229.075 310.239 235.621 304.566L234.312 303.054ZM207.666 311H149.076V313H207.666V311ZM150.076 312V207H148.076V312H150.076ZM149.076 208H204.096V206H149.076V208ZM204.096 208C215.714 208 224.476 210.697 230.532 215.946L231.841 214.434C225.297 208.763 215.999 206 204.096 206V208ZM230.532 215.946C236.587 221.194 239.636 228.255 239.636 237.24H241.636C241.636 227.745 238.386 220.106 231.841 214.434L230.532 215.946ZM239.636 237.24C239.636 246.168 236.145 252.918 229.158 257.62L230.275 259.28C237.848 254.182 241.636 246.792 241.636 237.24H239.636ZM198.846 232.04H182.466V234.04H198.846V232.04ZM181.466 233.04V246.9H183.466V233.04H181.466ZM182.466 247.9H198.846V245.9H182.466V247.9ZM198.846 247.9C201.753 247.9 204.119 247.323 205.771 246.001C207.466 244.645 208.246 242.641 208.246 240.18H206.246C206.246 242.199 205.627 243.555 204.522 244.439C203.374 245.357 201.54 245.9 198.846 245.9V247.9ZM208.246 240.18C208.246 237.599 207.48 235.496 205.794 234.063C204.14 232.657 201.764 232.04 198.846 232.04V234.04C201.528 234.04 203.353 234.613 204.499 235.587C205.613 236.534 206.246 238.001 206.246 240.18H208.246ZM201.576 286.54C204.436 286.54 206.767 285.901 208.387 284.447C210.028 282.974 210.766 280.824 210.766 278.19H208.766C208.766 280.456 208.14 281.981 207.051 282.958C205.941 283.954 204.177 284.54 201.576 284.54V286.54ZM210.766 278.19C210.766 275.678 210.016 273.627 208.365 272.229C206.745 270.859 204.424 270.26 201.576 270.26V272.26C204.189 272.26 205.963 272.816 207.073 273.756C208.152 274.668 208.766 276.082 208.766 278.19H210.766ZM201.576 270.26H182.466V272.26H201.576V270.26ZM181.466 271.26V285.54H183.466V271.26H181.466ZM182.466 286.54H201.576V284.54H182.466V286.54ZM265.318 298.98L264.615 299.692L264.62 299.696L265.318 298.98ZM265.318 220.23L266.016 220.946L266.021 220.942L265.318 220.23ZM344.698 220.23L343.991 220.937L344 220.946L344.698 220.23ZM344.698 298.98L345.401 299.692L345.401 299.692L344.698 298.98ZM320.128 275.25L319.421 274.543L319.415 274.549L319.409 274.555L320.128 275.25ZM320.128 243.75L319.409 244.445L319.415 244.451L319.421 244.457L320.128 243.75ZM289.888 243.75L289.181 243.043L289.175 243.049L289.169 243.055L289.888 243.75ZM289.888 275.25L289.169 275.945L289.175 275.951L289.181 275.957L289.888 275.25ZM305.008 313.94C289.723 313.94 276.745 308.718 266.016 298.264L264.62 299.696C275.731 310.522 289.213 315.94 305.008 315.94V313.94ZM266.021 298.268C255.294 287.679 249.938 274.776 249.938 259.5H247.938C247.938 275.304 253.502 288.721 264.616 299.692L266.021 298.268ZM249.938 259.5C249.938 244.224 255.293 231.394 266.016 220.946L264.62 219.514C253.503 230.346 247.938 243.696 247.938 259.5H249.938ZM266.021 220.942C276.751 210.349 289.727 205.06 305.008 205.06V203.06C289.209 203.06 275.725 208.551 264.616 219.518L266.021 220.942ZM305.008 205.06C320.431 205.06 333.404 210.351 343.991 220.937L345.405 219.523C334.432 208.549 320.945 203.06 305.008 203.06V205.06ZM344 220.946C354.723 231.394 360.078 244.224 360.078 259.5H362.078C362.078 243.696 356.513 230.346 345.396 219.514L344 220.946ZM360.078 259.5C360.078 274.776 354.722 287.679 343.996 298.268L345.401 299.692C356.514 288.721 362.078 275.304 362.078 259.5H360.078ZM343.996 298.268C333.41 308.716 320.435 313.94 305.008 313.94V315.94C320.941 315.94 334.426 310.524 345.401 299.692L343.996 298.268ZM305.008 282.34C311.412 282.34 316.721 280.219 320.847 275.945L319.409 274.555C315.695 278.401 310.924 280.34 305.008 280.34V282.34ZM320.835 275.957C325.106 271.686 327.218 266.17 327.218 259.5H325.218C325.218 265.71 323.27 270.694 319.421 274.543L320.835 275.957ZM327.218 259.5C327.218 252.83 325.106 247.314 320.835 243.043L319.421 244.457C323.27 248.306 325.218 253.29 325.218 259.5H327.218ZM320.847 243.055C316.721 238.781 311.412 236.66 305.008 236.66V238.66C310.924 238.66 315.695 240.599 319.409 244.445L320.847 243.055ZM305.008 236.66C298.737 236.66 293.438 238.785 289.181 243.043L290.595 244.457C294.458 240.595 299.239 238.66 305.008 238.66V236.66ZM289.169 243.055C285.043 247.328 283.008 252.84 283.008 259.5H285.008C285.008 253.28 286.893 248.292 290.607 244.445L289.169 243.055ZM283.008 259.5C283.008 266.16 285.043 271.672 289.169 275.945L290.607 274.555C286.893 270.708 285.008 265.72 285.008 259.5H283.008ZM289.181 275.957C293.438 280.215 298.737 282.34 305.008 282.34V280.34C299.239 280.34 294.458 278.405 290.595 274.543L289.181 275.957ZM446.97 207V206H446.5L446.2 206.362L446.97 207ZM473.85 207H474.85V206H473.85V207ZM473.85 312V313H474.85V312H473.85ZM439.83 312H438.83V313H439.83V312ZM439.83 262.86H440.83V260.087L439.06 262.222L439.83 262.86ZM399.09 312V313H399.56L399.86 312.638L399.09 312ZM372.21 312H371.21V313H372.21V312ZM372.21 207V206H371.21V207H372.21ZM406.23 207H407.23V206H406.23V207ZM406.23 256.14H405.23V258.913L407 256.778L406.23 256.14ZM446.97 208H473.85V206H446.97V208ZM472.85 207V312H474.85V207H472.85ZM473.85 311H439.83V313H473.85V311ZM440.83 312V262.86H438.83V312H440.83ZM439.06 262.222L398.32 311.362L399.86 312.638L440.6 263.498L439.06 262.222ZM399.09 311H372.21V313H399.09V311ZM373.21 312V207H371.21V312H373.21ZM372.21 208H406.23V206H372.21V208ZM405.23 207V256.14H407.23V207H405.23ZM407 256.778L447.74 207.638L446.2 206.362L405.46 255.502L407 256.778ZM595.036 312V313H596.972L595.852 311.421L595.036 312ZM555.556 312L554.74 312.577L555.039 313H555.556V312ZM537.286 286.17L538.103 285.593L537.286 284.438L536.47 285.593L537.286 286.17ZM519.016 312V313H519.534L519.833 312.577L519.016 312ZM479.746 312L478.931 311.421L477.81 313H479.746V312ZM517.756 258.45L518.572 259.029L518.983 258.45L518.571 257.871L517.756 258.45ZM481.216 207V206H479.279L480.401 207.579L481.216 207ZM520.486 207L521.302 206.422L521.003 206H520.486V207ZM537.286 230.73L536.47 231.308L537.286 232.461L538.102 231.308L537.286 230.73ZM554.086 207V206H553.569L553.27 206.422L554.086 207ZM593.566 207L594.381 207.579L595.503 206H593.566V207ZM557.026 258.45L556.211 257.871L555.8 258.45L556.211 259.029L557.026 258.45ZM595.036 311H555.556V313H595.036V311ZM556.373 311.423L538.103 285.593L536.47 286.747L554.74 312.577L556.373 311.423ZM536.47 285.593L518.2 311.423L519.833 312.577L538.103 286.747L536.47 285.593ZM519.016 311H479.746V313H519.016V311ZM480.562 312.579L518.572 259.029L516.941 257.871L478.931 311.421L480.562 312.579ZM518.571 257.871L482.031 206.421L480.401 207.579L516.941 259.029L518.571 257.871ZM481.216 208H520.486V206H481.216V208ZM519.67 207.578L536.47 231.308L538.102 230.152L521.302 206.422L519.67 207.578ZM538.102 231.308L554.902 207.578L553.27 206.422L536.47 230.152L538.102 231.308ZM554.086 208H593.566V206H554.086V208ZM592.751 206.421L556.211 257.871L557.841 259.029L594.381 207.579L592.751 206.421ZM556.211 259.029L594.221 312.579L595.852 311.421L557.842 257.871L556.211 259.029Z" fill="#A8AAB9" mask="url(#path-1-outside-1_279_20)"/>
</svg>
