<svg width="23" height="23" viewBox="0 0 23 23" fill="none" xmlns="http://www.w3.org/2000/svg">
<path d="M14.7258 10.5867L10.0383 5.89922C9.90713 5.76797 9.74006 5.67853 9.55809 5.64234C9.37613 5.60608 9.1875 5.62465 9.01612 5.69569C8.84475 5.76666 8.69831 5.88694 8.59528 6.04125C8.49225 6.19556 8.43731 6.37697 8.4375 6.5625V10.3125H0.9375C0.688856 10.3125 0.450403 10.4113 0.274584 10.5871C0.0987751 10.7629 0 11.0014 0 11.25C0 11.4986 0.0987751 11.7371 0.274584 11.9129C0.450403 12.0887 0.688856 12.1875 0.9375 12.1875H8.4375V15.9375C8.43731 16.123 8.49225 16.3044 8.59528 16.4587C8.69831 16.6131 8.84475 16.7333 9.01612 16.8043C9.1875 16.8754 9.37613 16.8939 9.55809 16.8577C9.74006 16.8215 9.90713 16.732 10.0383 16.6008L14.7258 11.9133C14.813 11.8262 14.8821 11.7228 14.9293 11.609C14.9765 11.4952 15.0007 11.3732 15.0007 11.25C15.0007 11.1268 14.9765 11.0048 14.9293 10.891C14.8821 10.7772 14.813 10.6738 14.7258 10.5867ZM10.3125 13.6747V8.82534L12.7372 11.25L10.3125 13.6747ZM22.5 1.875V20.625C22.5 21.1222 22.3025 21.5992 21.9508 21.9508C21.5992 22.3025 21.1222 22.5 20.625 22.5H14.0625C13.8139 22.5 13.5754 22.4012 13.3996 22.2254C13.2238 22.0496 13.125 21.8111 13.125 21.5625C13.125 21.3139 13.2238 21.0754 13.3996 20.8996C13.5754 20.7238 13.8139 20.625 14.0625 20.625H20.625V1.875H14.0625C13.8139 1.875 13.5754 1.77622 13.3996 1.60042C13.2238 1.4246 13.125 1.18614 13.125 0.9375C13.125 0.688856 13.2238 0.450403 13.3996 0.274584C13.5754 0.0987751 13.8139 0 14.0625 0H20.625C21.1222 0 21.5992 0.197541 21.9508 0.549178C22.3025 0.900806 22.5 1.37772 22.5 1.875Z" fill="#727272"/>
</svg>
