<svg width="50" height="50" viewBox="0 0 50 50" fill="none" xmlns="http://www.w3.org/2000/svg">
<circle cx="25" cy="25" r="24.5" fill="#A8AAB9" stroke="#D9D9D9"/>
<path d="M38.1934 38.125L13.1934 10.6249C13.0218 10.4656 12.7968 10.3763 12.5626 10.3746C12.3285 10.3728 12.1021 10.4588 11.9282 10.6155C11.7542 10.7723 11.6452 10.9884 11.6226 11.2215C11.5999 11.4546 11.6654 11.6877 11.8059 11.8749L17.8122 18.4875V25C17.8122 26.3125 18.1717 27.5998 18.8516 28.7226C19.5314 29.8453 20.5057 30.7605 21.6688 31.3687C22.8318 31.977 24.1393 32.2552 25.4492 32.1731C26.7592 32.091 28.0217 31.6517 29.0997 30.9031L31.2138 33.2296C29.6831 34.3853 27.8606 35.0913 25.9507 35.2682C24.0409 35.4451 22.1197 35.0858 20.4028 34.2308C18.6859 33.376 17.2415 32.0591 16.2319 30.4285C15.2222 28.7978 14.6873 26.9178 14.6872 25C14.6872 24.7513 14.5884 24.5128 14.4126 24.337C14.2368 24.1612 13.9983 24.0625 13.7497 24.0625C13.5011 24.0625 13.2626 24.1612 13.0868 24.337C12.911 24.5128 12.8122 24.7513 12.8122 25C12.8162 28.0685 13.9763 31.0228 16.0613 33.2743C18.1462 35.5258 21.0029 36.9091 24.0622 37.1483V41.25C24.0622 41.4986 24.1609 41.737 24.3368 41.9128C24.5126 42.0886 24.7511 42.1875 24.9997 42.1875C25.2483 42.1875 25.4868 42.0886 25.6626 41.9128C25.8384 41.737 25.9372 41.4986 25.9372 41.25V37.1483C28.3187 36.9675 30.5938 36.0881 32.4778 34.6202L36.8059 39.375C36.9733 39.559 37.2071 39.6688 37.4556 39.6806C37.7039 39.6923 37.9469 39.6048 38.1309 39.4375C38.3149 39.27 38.4249 39.0363 38.4366 38.7878C38.4483 38.5393 38.3608 38.2965 38.1934 38.1125V38.125ZM24.9997 30.3125C23.5907 30.3125 22.2394 29.7527 21.2432 28.7565C20.2469 27.7601 19.6872 26.4088 19.6872 25V20.55L27.8232 29.5C26.9773 30.0315 25.9986 30.3131 24.9997 30.3125ZM18.8841 11.2234C19.7058 9.89254 20.9392 8.86609 22.3972 8.29974C23.8551 7.73341 25.4579 7.65809 26.9626 8.08523C28.4672 8.51237 29.7914 9.41864 30.7343 10.6665C31.6772 11.9144 32.1873 13.4359 32.1872 14.9999V24.4421C32.1872 24.6907 32.0884 24.9292 31.9126 25.105C31.7368 25.2808 31.4983 25.3796 31.2497 25.3796C31.0011 25.3796 30.7626 25.2808 30.5868 25.105C30.4109 24.9292 30.3122 24.6907 30.3122 24.4421V14.9999C30.3127 13.8434 29.9358 12.7184 29.2387 11.7956C28.5417 10.8728 27.5624 10.2027 26.4499 9.88701C25.3373 9.57131 24.1522 9.62727 23.0743 10.0464C21.9964 10.4655 21.0848 11.2249 20.4778 12.2093C20.4152 12.3182 20.3312 12.4133 20.2311 12.4891C20.1309 12.5649 20.0166 12.6198 19.8948 12.6505C19.7729 12.6813 19.6462 12.6872 19.5221 12.668C19.3979 12.6488 19.2789 12.6049 19.1722 12.5388C19.0653 12.4727 18.9728 12.3859 18.9003 12.2833C18.8277 12.1808 18.7764 12.0648 18.7496 11.9421C18.7227 11.8194 18.7207 11.6925 18.7438 11.5691C18.7669 11.4456 18.8147 11.328 18.8841 11.2234ZM34.6091 28.75C35.0762 27.555 35.3148 26.283 35.3122 25C35.3122 24.7513 35.4109 24.5128 35.5868 24.337C35.7626 24.1612 36.0011 24.0625 36.2497 24.0625C36.4983 24.0625 36.7368 24.1612 36.9126 24.337C37.0884 24.5128 37.1872 24.7513 37.1872 25C37.1896 26.5165 36.9077 28.0201 36.3559 29.4327C36.2873 29.6086 36.1673 29.7596 36.0114 29.8661C35.8556 29.9726 35.6713 30.0296 35.4826 30.0296C35.3298 30.0297 35.1793 29.9925 35.0443 29.9212C34.9093 29.85 34.7937 29.7467 34.7076 29.6206C34.6214 29.4945 34.5674 29.3492 34.5503 29.1975C34.5332 29.0457 34.5533 28.8921 34.6091 28.75Z" fill="#343330"/>
</svg>
