<svg width="800" height="330" viewBox="0 0 800 330" fill="none" xmlns="http://www.w3.org/2000/svg">
<mask id="path-1-outside-1_270_14" maskUnits="userSpaceOnUse" x="17" y="11" width="780" height="311" fill="black">
<rect fill="white" x="17" y="11" width="780" height="311"/>
<path d="M48.2598 159V123.93C56.0998 124.91 61.7698 123.79 65.2698 120.57C68.9098 117.21 70.7298 110.35 70.7298 99.99V12H175.31V159H137.72V48.33H108.32V101.67C108.32 113.71 106.57 123.93 103.07 132.33C99.7098 140.59 95.0198 146.68 88.9998 150.6C83.1198 154.52 76.8198 157.11 70.0998 158.37C63.3798 159.63 56.0998 159.84 48.2598 159ZM267.508 54H294.388V159H260.368V109.86L219.628 159H192.748V54H226.768V103.14L267.508 54ZM369.164 54H404.234V159H369.164V129.6C361.884 131.42 354.884 132.33 348.164 132.33C335.564 132.33 325.274 128.97 317.294 122.25C309.454 115.39 305.534 105.73 305.534 93.27V54H340.604V87.18C340.604 95.72 345.714 99.99 355.934 99.99C360.554 99.99 364.964 99.29 369.164 97.89V54ZM485.918 54H520.778V159H485.918V122.88H455.048V159H420.188V54H455.048V90.12H485.918V54ZM588.859 83.61C601.459 83.61 611.469 87.04 618.889 93.9C626.309 100.62 630.019 109.72 630.019 121.2C630.019 132.82 626.309 142.06 618.889 148.92C611.609 155.64 601.599 159 588.859 159H536.779V54H571.639V83.61H588.859ZM638.629 54H673.489V159H638.629V54ZM586.759 129.81C589.559 129.81 591.799 129.04 593.479 127.5C595.159 125.96 595.999 123.86 595.999 121.2C595.999 118.68 595.159 116.65 593.479 115.11C591.799 113.57 589.559 112.8 586.759 112.8H571.639V129.81H586.759ZM706.264 42.66V13.26H774.094V42.66H706.264ZM764.224 54H791.104V159H757.084V109.86L716.344 159H689.464V54H723.484V103.14L764.224 54ZM122.68 317H83.6202L53.8002 272.27V317H18.9402V212H53.8002V255.89L80.8902 212H121.21L85.9302 264.5L122.68 317ZM195.921 212H230.781V317H195.921V307.34C188.781 315.74 178.841 319.94 166.101 319.94C152.101 319.94 140.341 314.69 130.821 304.19C121.441 293.55 116.751 280.32 116.751 264.5C116.751 248.68 121.441 235.52 130.821 225.02C140.341 214.38 152.101 209.06 166.101 209.06C178.841 209.06 188.781 213.26 195.921 221.66V212ZM157.911 281.09C161.971 285.29 167.291 287.39 173.871 287.39C180.451 287.39 185.771 285.29 189.831 281.09C193.891 276.89 195.921 271.36 195.921 264.5C195.921 257.64 193.891 252.11 189.831 247.91C185.771 243.71 180.451 241.61 173.871 241.61C167.291 241.61 161.971 243.71 157.911 247.91C153.851 252.11 151.821 257.64 151.821 264.5C151.821 271.36 153.851 276.89 157.911 281.09ZM299.085 320.15C281.725 320.15 267.795 314.83 257.295 304.19C246.935 293.41 241.755 279.34 241.755 261.98C241.755 244.34 244.555 230.41 250.155 220.19C255.895 209.83 266.045 201.08 280.605 193.94C296.285 186.24 306.015 180.92 309.795 177.98C313.855 174.62 317.005 170.35 319.245 165.17L347.805 181.55C345.705 189.39 341.715 195.62 335.835 200.24C330.095 204.86 321.415 209.48 309.795 214.1C300.555 217.74 293.905 221.03 289.845 223.97C285.925 226.77 283.125 230.13 281.445 234.05C288.445 228.03 297.475 225.02 308.535 225.02C320.155 225.02 330.515 229.22 339.615 237.62C348.855 246.02 353.475 257.15 353.475 271.01C353.475 285.29 348.505 297.05 338.565 306.29C328.765 315.53 315.605 320.15 299.085 320.15ZM284.175 284.45C288.095 288.09 292.925 289.91 298.665 289.91C304.405 289.91 309.095 288.16 312.735 284.66C316.515 281.02 318.405 276.54 318.405 271.22C318.405 265.76 316.445 261.28 312.525 257.78C308.745 254.14 303.915 252.32 298.035 252.32C292.715 252.32 288.095 254 284.175 257.36C280.255 260.58 278.295 264.99 278.295 270.59C278.295 276.19 280.255 280.81 284.175 284.45ZM436.706 212H463.586V317H429.566V267.86L388.826 317H361.946V212H395.966V261.14L436.706 212ZM545.292 212H580.152V317H545.292V280.88H514.422V317H479.562V212H514.422V248.12H545.292V212ZM627.028 277.31C630.528 285.85 638.368 290.12 650.548 290.12C658.108 290.12 664.478 287.67 669.658 282.77L694.858 300.41C684.498 313.43 669.448 319.94 649.708 319.94C631.928 319.94 617.648 314.76 606.868 304.4C596.228 293.9 590.908 280.67 590.908 264.71C590.908 248.89 596.158 235.66 606.658 225.02C617.158 214.38 630.528 209.06 646.768 209.06C662.448 209.06 675.398 214.31 685.618 224.81C695.838 235.31 700.948 248.47 700.948 264.29C700.948 268.91 700.458 273.25 699.478 277.31H627.028ZM626.608 253.16H666.928C664.128 243.36 657.548 238.46 647.188 238.46C636.408 238.46 629.548 243.36 626.608 253.16ZM795.377 212V245.39H765.347V317H730.487V245.39H700.037V212H795.377Z"/>
</mask>
<path d="M48.2598 159H47.2598V159.899L48.1532 159.994L48.2598 159ZM48.2598 123.93L48.3838 122.938L47.2598 122.797V123.93H48.2598ZM65.2698 120.57L65.9468 121.306L65.9481 121.305L65.2698 120.57ZM70.7298 12V11H69.7298V12H70.7298ZM175.31 12H176.31V11H175.31V12ZM175.31 159V160H176.31V159H175.31ZM137.72 159H136.72V160H137.72V159ZM137.72 48.33H138.72V47.33H137.72V48.33ZM108.32 48.33V47.33H107.32V48.33H108.32ZM103.07 132.33L102.147 131.945L102.143 131.953L103.07 132.33ZM88.9998 150.6L88.4541 149.762L88.4451 149.768L88.9998 150.6ZM49.2598 159V123.93H47.2598V159H49.2598ZM48.1357 124.922C56.0799 125.915 62.122 124.825 65.9468 121.306L64.5927 119.834C61.4175 122.755 56.1196 123.905 48.3838 122.938L48.1357 124.922ZM65.9481 121.305C67.9557 119.452 69.3927 116.7 70.3313 113.161C71.2712 109.619 71.7298 105.221 71.7298 99.99H69.7298C69.7298 105.119 69.2784 109.331 68.3982 112.649C67.5169 115.97 66.2239 118.328 64.5915 119.835L65.9481 121.305ZM71.7298 99.99V12H69.7298V99.99H71.7298ZM70.7298 13H175.31V11H70.7298V13ZM174.31 12V159H176.31V12H174.31ZM175.31 158H137.72V160H175.31V158ZM138.72 159V48.33H136.72V159H138.72ZM137.72 47.33H108.32V49.33H137.72V47.33ZM107.32 48.33V101.67H109.32V48.33H107.32ZM107.32 101.67C107.32 113.618 105.582 123.7 102.147 131.945L103.993 132.715C107.557 124.16 109.32 113.802 109.32 101.67H107.32ZM102.143 131.953C98.8416 140.07 94.2658 145.978 88.4541 149.762L89.5455 151.438C95.7737 147.382 100.578 141.11 103.996 132.707L102.143 131.953ZM88.4451 149.768C82.6733 153.616 76.4986 156.153 69.9155 157.387L70.2841 159.353C77.1409 158.067 83.5663 155.424 89.5545 151.432L88.4451 149.768ZM69.9155 157.387C63.3047 158.627 56.1239 158.837 48.3663 158.006L48.1532 159.994C56.0757 160.843 63.4548 160.633 70.2841 159.353L69.9155 157.387ZM267.508 54V53H267.038L266.738 53.3618L267.508 54ZM294.388 54H295.388V53H294.388V54ZM294.388 159V160H295.388V159H294.388ZM260.368 159H259.368V160H260.368V159ZM260.368 109.86H261.368V107.087L259.598 109.222L260.368 109.86ZM219.628 159V160H220.098L220.398 159.638L219.628 159ZM192.748 159H191.748V160H192.748V159ZM192.748 54V53H191.748V54H192.748ZM226.768 54H227.768V53H226.768V54ZM226.768 103.14H225.768V105.913L227.538 103.778L226.768 103.14ZM267.508 55H294.388V53H267.508V55ZM293.388 54V159H295.388V54H293.388ZM294.388 158H260.368V160H294.388V158ZM261.368 159V109.86H259.368V159H261.368ZM259.598 109.222L218.858 158.362L220.398 159.638L261.138 110.498L259.598 109.222ZM219.628 158H192.748V160H219.628V158ZM193.748 159V54H191.748V159H193.748ZM192.748 55H226.768V53H192.748V55ZM225.768 54V103.14H227.768V54H225.768ZM227.538 103.778L268.278 54.6382L266.738 53.3618L225.998 102.502L227.538 103.778ZM369.164 54V53H368.164V54H369.164ZM404.234 54H405.234V53H404.234V54ZM404.234 159V160H405.234V159H404.234ZM369.164 159H368.164V160H369.164V159ZM369.164 129.6H370.164V128.319L368.922 128.63L369.164 129.6ZM317.294 122.25L316.636 123.003L316.643 123.009L316.65 123.015L317.294 122.25ZM305.534 54V53H304.534V54H305.534ZM340.604 54H341.604V53H340.604V54ZM369.164 97.89L369.481 98.8387L370.164 98.6108V97.89H369.164ZM369.164 55H404.234V53H369.164V55ZM403.234 54V159H405.234V54H403.234ZM404.234 158H369.164V160H404.234V158ZM370.164 159V129.6H368.164V159H370.164ZM368.922 128.63C361.712 130.432 354.794 131.33 348.164 131.33V133.33C354.975 133.33 362.057 132.408 369.407 130.57L368.922 128.63ZM348.164 131.33C335.749 131.33 325.703 128.023 317.939 121.485L316.65 123.015C324.846 129.917 335.38 133.33 348.164 133.33V131.33ZM317.953 121.497C310.373 114.865 306.534 105.504 306.534 93.27H304.534C304.534 105.956 308.536 115.915 316.636 123.003L317.953 121.497ZM306.534 93.27V54H304.534V93.27H306.534ZM305.534 55H340.604V53H305.534V55ZM339.604 54V87.18H341.604V54H339.604ZM339.604 87.18C339.604 91.656 340.952 95.1787 343.796 97.5549C346.605 99.9023 350.71 100.99 355.934 100.99V98.99C350.939 98.99 347.379 97.9427 345.078 96.0201C342.812 94.1263 341.604 91.244 341.604 87.18H339.604ZM355.934 100.99C360.657 100.99 365.174 100.274 369.481 98.8387L368.848 96.9413C364.755 98.3059 360.452 98.99 355.934 98.99V100.99ZM370.164 97.89V54H368.164V97.89H370.164ZM485.918 54V53H484.918V54H485.918ZM520.778 54H521.778V53H520.778V54ZM520.778 159V160H521.778V159H520.778ZM485.918 159H484.918V160H485.918V159ZM485.918 122.88H486.918V121.88H485.918V122.88ZM455.048 122.88V121.88H454.048V122.88H455.048ZM455.048 159V160H456.048V159H455.048ZM420.188 159H419.188V160H420.188V159ZM420.188 54V53H419.188V54H420.188ZM455.048 54H456.048V53H455.048V54ZM455.048 90.12H454.048V91.12H455.048V90.12ZM485.918 90.12V91.12H486.918V90.12H485.918ZM485.918 55H520.778V53H485.918V55ZM519.778 54V159H521.778V54H519.778ZM520.778 158H485.918V160H520.778V158ZM486.918 159V122.88H484.918V159H486.918ZM485.918 121.88H455.048V123.88H485.918V121.88ZM454.048 122.88V159H456.048V122.88H454.048ZM455.048 158H420.188V160H455.048V158ZM421.188 159V54H419.188V159H421.188ZM420.188 55H455.048V53H420.188V55ZM454.048 54V90.12H456.048V54H454.048ZM455.048 91.12H485.918V89.12H455.048V91.12ZM486.918 90.12V54H484.918V90.12H486.918ZM618.889 93.9L618.21 94.6343L618.218 94.6412L618.889 93.9ZM618.889 148.92L619.567 149.655L619.568 149.654L618.889 148.92ZM536.779 159H535.779V160H536.779V159ZM536.779 54V53H535.779V54H536.779ZM571.639 54H572.639V53H571.639V54ZM571.639 83.61H570.639V84.61H571.639V83.61ZM638.629 54V53H637.629V54H638.629ZM673.489 54H674.489V53H673.489V54ZM673.489 159V160H674.489V159H673.489ZM638.629 159H637.629V160H638.629V159ZM593.479 127.5L594.155 128.237L594.155 128.237L593.479 127.5ZM593.479 115.11L592.803 115.847L592.803 115.847L593.479 115.11ZM571.639 112.8V111.8H570.639V112.8H571.639ZM571.639 129.81H570.639V130.81H571.639V129.81ZM588.859 84.61C601.272 84.61 611.017 87.9846 618.21 94.6343L619.568 93.1657C611.92 86.0954 601.646 82.61 588.859 82.61V84.61ZM618.218 94.6412C625.397 101.143 629.019 109.957 629.019 121.2H631.019C631.019 109.483 627.221 100.097 619.56 93.1588L618.218 94.6412ZM629.019 121.2C629.019 132.587 625.394 141.544 618.21 148.186L619.568 149.654C627.224 142.576 631.019 133.053 631.019 121.2H629.019ZM618.211 148.185C611.163 154.69 601.422 158 588.859 158V160C601.776 160 612.054 156.59 619.567 149.655L618.211 148.185ZM588.859 158H536.779V160H588.859V158ZM537.779 159V54H535.779V159H537.779ZM536.779 55H571.639V53H536.779V55ZM570.639 54V83.61H572.639V54H570.639ZM571.639 84.61H588.859V82.61H571.639V84.61ZM638.629 55H673.489V53H638.629V55ZM672.489 54V159H674.489V54H672.489ZM673.489 158H638.629V160H673.489V158ZM639.629 159V54H637.629V159H639.629ZM586.759 130.81C589.749 130.81 592.25 129.983 594.155 128.237L592.803 126.763C591.347 128.097 589.369 128.81 586.759 128.81V130.81ZM594.155 128.237C596.076 126.476 596.999 124.089 596.999 121.2H594.999C594.999 123.631 594.241 125.444 592.803 126.763L594.155 128.237ZM596.999 121.2C596.999 118.433 596.064 116.123 594.155 114.373L592.803 115.847C594.253 117.177 594.999 118.927 594.999 121.2H596.999ZM594.155 114.373C592.25 112.627 589.749 111.8 586.759 111.8V113.8C589.369 113.8 591.347 114.513 592.803 115.847L594.155 114.373ZM586.759 111.8H571.639V113.8H586.759V111.8ZM570.639 112.8V129.81H572.639V112.8H570.639ZM571.639 130.81H586.759V128.81H571.639V130.81ZM706.264 42.66H705.264V43.66H706.264V42.66ZM706.264 13.26V12.26H705.264V13.26H706.264ZM774.094 13.26H775.094V12.26H774.094V13.26ZM774.094 42.66V43.66H775.094V42.66H774.094ZM764.224 54V53H763.754L763.454 53.3618L764.224 54ZM791.104 54H792.104V53H791.104V54ZM791.104 159V160H792.104V159H791.104ZM757.084 159H756.084V160H757.084V159ZM757.084 109.86H758.084V107.087L756.314 109.222L757.084 109.86ZM716.344 159V160H716.814L717.113 159.638L716.344 159ZM689.464 159H688.464V160H689.464V159ZM689.464 54V53H688.464V54H689.464ZM723.484 54H724.484V53H723.484V54ZM723.484 103.14H722.484V105.913L724.253 103.778L723.484 103.14ZM707.264 42.66V13.26H705.264V42.66H707.264ZM706.264 14.26H774.094V12.26H706.264V14.26ZM773.094 13.26V42.66H775.094V13.26H773.094ZM774.094 41.66H706.264V43.66H774.094V41.66ZM764.224 55H791.104V53H764.224V55ZM790.104 54V159H792.104V54H790.104ZM791.104 158H757.084V160H791.104V158ZM758.084 159V109.86H756.084V159H758.084ZM756.314 109.222L715.574 158.362L717.113 159.638L757.853 110.498L756.314 109.222ZM716.344 158H689.464V160H716.344V158ZM690.464 159V54H688.464V159H690.464ZM689.464 55H723.484V53H689.464V55ZM722.484 54V103.14H724.484V54H722.484ZM724.253 103.778L764.993 54.6382L763.454 53.3618L722.714 102.502L724.253 103.778ZM122.68 317V318H124.601L123.499 316.427L122.68 317ZM83.6202 317L82.7881 317.555L83.085 318H83.6202V317ZM53.8002 272.27L54.6322 271.715L52.8002 268.967V272.27H53.8002ZM53.8002 317V318H54.8002V317H53.8002ZM18.9402 317H17.9402V318H18.9402V317ZM18.9402 212V211H17.9402V212H18.9402ZM53.8002 212H54.8002V211H53.8002V212ZM53.8002 255.89H52.8002V259.414L54.6511 256.415L53.8002 255.89ZM80.8902 212V211H80.3323L80.0392 211.475L80.8902 212ZM121.21 212L122.04 212.558L123.087 211H121.21V212ZM85.9302 264.5L85.1002 263.942L84.7176 264.512L85.1109 265.073L85.9302 264.5ZM122.68 316H83.6202V318H122.68V316ZM84.4522 316.445L54.6322 271.715L52.9681 272.825L82.7881 317.555L84.4522 316.445ZM52.8002 272.27V317H54.8002V272.27H52.8002ZM53.8002 316H18.9402V318H53.8002V316ZM19.9402 317V212H17.9402V317H19.9402ZM18.9402 213H53.8002V211H18.9402V213ZM52.8002 212V255.89H54.8002V212H52.8002ZM54.6511 256.415L81.7411 212.525L80.0392 211.475L52.9492 255.365L54.6511 256.415ZM80.8902 213H121.21V211H80.8902V213ZM120.38 211.442L85.1002 263.942L86.7602 265.058L122.04 212.558L120.38 211.442ZM85.1109 265.073L121.861 317.573L123.499 316.427L86.7494 263.927L85.1109 265.073ZM195.921 212V211H194.921V212H195.921ZM230.781 212H231.781V211H230.781V212ZM230.781 317V318H231.781V317H230.781ZM195.921 317H194.921V318H195.921V317ZM195.921 307.34H196.921V304.619L195.159 306.692L195.921 307.34ZM130.821 304.19L130.071 304.851L130.08 304.862L130.821 304.19ZM130.821 225.02L130.076 224.353L130.075 224.354L130.821 225.02ZM195.921 221.66L195.159 222.308L196.921 224.381V221.66H195.921ZM189.831 281.09L189.112 280.395L189.112 280.395L189.831 281.09ZM189.831 247.91L189.112 248.605L189.112 248.605L189.831 247.91ZM195.921 213H230.781V211H195.921V213ZM229.781 212V317H231.781V212H229.781ZM230.781 316H195.921V318H230.781V316ZM196.921 317V307.34H194.921V317H196.921ZM195.159 306.692C188.24 314.833 178.598 318.94 166.101 318.94V320.94C179.084 320.94 189.322 316.647 196.683 307.988L195.159 306.692ZM166.101 318.94C152.387 318.94 140.895 313.812 131.562 303.518L130.08 304.862C139.787 315.568 151.815 320.94 166.101 320.94V318.94ZM131.571 303.529C122.371 293.093 117.751 280.107 117.751 264.5H115.751C115.751 280.533 120.511 294.007 130.071 304.851L131.571 303.529ZM117.751 264.5C117.751 248.893 122.371 235.98 131.567 225.686L130.075 224.354C120.511 235.06 115.751 248.467 115.751 264.5H117.751ZM131.566 225.687C140.901 215.254 152.392 210.06 166.101 210.06V208.06C151.81 208.06 139.781 213.506 130.076 224.353L131.566 225.687ZM166.101 210.06C178.598 210.06 188.24 214.167 195.159 222.308L196.683 221.012C189.322 212.353 179.084 208.06 166.101 208.06V210.06ZM196.921 221.66V212H194.921V221.66H196.921ZM157.192 281.785C161.465 286.205 167.057 288.39 173.871 288.39V286.39C167.524 286.39 162.477 284.375 158.63 280.395L157.192 281.785ZM173.871 288.39C180.684 288.39 186.277 286.205 190.55 281.785L189.112 280.395C185.265 284.375 180.217 286.39 173.871 286.39V288.39ZM190.55 281.785C194.821 277.366 196.921 271.571 196.921 264.5H194.921C194.921 271.149 192.961 276.414 189.112 280.395L190.55 281.785ZM196.921 264.5C196.921 257.429 194.821 251.634 190.55 247.215L189.112 248.605C192.961 252.586 194.921 257.851 194.921 264.5H196.921ZM190.55 247.215C186.277 242.795 180.684 240.61 173.871 240.61V242.61C180.217 242.61 185.265 244.625 189.112 248.605L190.55 247.215ZM173.871 240.61C167.057 240.61 161.465 242.795 157.192 247.215L158.63 248.605C162.477 244.625 167.524 242.61 173.871 242.61V240.61ZM157.192 247.215C152.921 251.634 150.821 257.429 150.821 264.5H152.821C152.821 257.851 154.781 252.586 158.63 248.605L157.192 247.215ZM150.821 264.5C150.821 271.571 152.921 277.366 157.192 281.785L158.63 280.395C154.781 276.414 152.821 271.149 152.821 264.5H150.821ZM257.295 304.19L256.574 304.883L256.583 304.892L257.295 304.19ZM250.155 220.19L249.28 219.705L249.278 219.709L250.155 220.19ZM280.605 193.94L281.045 194.838L281.046 194.838L280.605 193.94ZM309.795 177.98L310.409 178.769L310.421 178.76L310.433 178.75L309.795 177.98ZM319.245 165.17L319.743 164.303L318.772 163.746L318.327 164.773L319.245 165.17ZM347.805 181.55L348.771 181.809L348.97 181.065L348.303 180.683L347.805 181.55ZM335.835 200.24L335.217 199.454L335.208 199.461L335.835 200.24ZM309.795 214.1L310.162 215.03L310.165 215.029L309.795 214.1ZM289.845 223.97L290.426 224.784L290.432 224.78L289.845 223.97ZM281.445 234.05L280.526 233.656L282.097 234.808L281.445 234.05ZM339.615 237.62L338.937 238.355L338.942 238.36L339.615 237.62ZM338.565 306.29L337.884 305.558L337.879 305.562L338.565 306.29ZM284.175 284.45L283.495 285.183L283.495 285.183L284.175 284.45ZM312.735 284.66L313.428 285.381L313.429 285.38L312.735 284.66ZM312.525 257.78L311.831 258.5L311.845 258.513L311.859 258.526L312.525 257.78ZM284.175 257.36L284.81 258.133L284.818 258.126L284.826 258.119L284.175 257.36ZM299.085 319.15C281.946 319.15 268.288 313.906 258.007 303.488L256.583 304.892C267.302 315.754 281.504 321.15 299.085 321.15V319.15ZM258.016 303.497C247.864 292.933 242.755 279.126 242.755 261.98H240.755C240.755 279.554 246.006 293.887 256.574 304.883L258.016 303.497ZM242.755 261.98C242.755 244.429 245.544 230.687 251.032 220.671L249.278 219.709C243.566 230.133 240.755 244.251 240.755 261.98H242.755ZM251.03 220.675C256.64 210.549 266.603 201.92 281.045 194.838L280.165 193.042C265.487 200.24 255.15 209.111 249.28 219.705L251.03 220.675ZM281.046 194.838C296.697 187.152 306.531 181.786 310.409 178.769L309.181 177.191C305.499 180.054 295.873 185.328 280.164 193.042L281.046 194.838ZM310.433 178.75C314.623 175.283 317.865 170.881 320.163 165.567L318.327 164.773C316.145 169.819 313.087 173.957 309.158 177.21L310.433 178.75ZM318.748 166.037L347.308 182.417L348.303 180.683L319.743 164.303L318.748 166.037ZM346.839 181.291C344.79 188.941 340.912 194.979 335.217 199.454L336.453 201.026C342.518 196.261 346.62 189.839 348.771 181.809L346.839 181.291ZM335.208 199.461C329.582 203.99 321.008 208.566 309.426 213.171L310.165 215.029C321.822 210.394 330.609 205.73 336.462 201.019L335.208 199.461ZM309.429 213.17C300.171 216.817 293.424 220.143 289.259 223.16L290.432 224.78C294.386 221.917 300.939 218.663 310.162 215.03L309.429 213.17ZM289.264 223.156C285.215 226.049 282.287 229.547 280.526 233.656L282.364 234.444C283.963 230.713 286.636 227.491 290.426 224.784L289.264 223.156ZM282.097 234.808C288.881 228.974 297.665 226.02 308.535 226.02V224.02C297.285 224.02 288.009 227.086 280.793 233.292L282.097 234.808ZM308.535 226.02C319.886 226.02 330.008 230.113 338.937 238.355L340.293 236.885C331.022 228.327 320.424 224.02 308.535 224.02V226.02ZM338.942 238.36C347.95 246.548 352.475 257.397 352.475 271.01H354.475C354.475 256.903 349.76 245.492 340.288 236.88L338.942 238.36ZM352.475 271.01C352.475 285.028 347.609 296.518 337.884 305.558L339.246 307.022C349.401 297.582 354.475 285.552 354.475 271.01H352.475ZM337.879 305.562C328.305 314.59 315.411 319.15 299.085 319.15V321.15C315.799 321.15 329.226 316.47 339.251 307.018L337.879 305.562ZM283.495 285.183C287.614 289.008 292.693 290.91 298.665 290.91V288.91C293.157 288.91 288.576 287.172 284.856 283.717L283.495 285.183ZM298.665 290.91C304.625 290.91 309.576 289.085 313.428 285.381L312.042 283.939C308.614 287.235 304.185 288.91 298.665 288.91V290.91ZM313.429 285.38C317.408 281.549 319.405 276.808 319.405 271.22H317.405C317.405 276.272 315.623 280.491 312.041 283.94L313.429 285.38ZM319.405 271.22C319.405 265.488 317.333 260.732 313.191 257.034L311.859 258.526C315.557 261.828 317.405 266.032 317.405 271.22H319.405ZM313.219 257.06C309.229 253.218 304.14 251.32 298.035 251.32V253.32C303.69 253.32 308.261 255.062 311.831 258.5L313.219 257.06ZM298.035 251.32C292.484 251.32 287.631 253.08 283.524 256.601L284.826 258.119C288.559 254.92 292.946 253.32 298.035 253.32V251.32ZM283.54 256.587C279.363 260.019 277.295 264.726 277.295 270.59H279.295C279.295 265.254 281.147 261.141 284.81 258.133L283.54 256.587ZM277.295 270.59C277.295 276.453 279.36 281.344 283.495 285.183L284.856 283.717C281.15 280.276 279.295 275.927 279.295 270.59H277.295ZM436.706 212V211H436.236L435.936 211.362L436.706 212ZM463.586 212H464.586V211H463.586V212ZM463.586 317V318H464.586V317H463.586ZM429.566 317H428.566V318H429.566V317ZM429.566 267.86H430.566V265.087L428.796 267.222L429.566 267.86ZM388.826 317V318H389.296L389.595 317.638L388.826 317ZM361.946 317H360.946V318H361.946V317ZM361.946 212V211H360.946V212H361.946ZM395.966 212H396.966V211H395.966V212ZM395.966 261.14H394.966V263.913L396.735 261.778L395.966 261.14ZM436.706 213H463.586V211H436.706V213ZM462.586 212V317H464.586V212H462.586ZM463.586 316H429.566V318H463.586V316ZM430.566 317V267.86H428.566V317H430.566ZM428.796 267.222L388.056 316.362L389.595 317.638L430.335 268.498L428.796 267.222ZM388.826 316H361.946V318H388.826V316ZM362.946 317V212H360.946V317H362.946ZM361.946 213H395.966V211H361.946V213ZM394.966 212V261.14H396.966V212H394.966ZM396.735 261.778L437.475 212.638L435.936 211.362L395.196 260.502L396.735 261.778ZM545.292 212V211H544.292V212H545.292ZM580.152 212H581.152V211H580.152V212ZM580.152 317V318H581.152V317H580.152ZM545.292 317H544.292V318H545.292V317ZM545.292 280.88H546.292V279.88H545.292V280.88ZM514.422 280.88V279.88H513.422V280.88H514.422ZM514.422 317V318H515.422V317H514.422ZM479.562 317H478.562V318H479.562V317ZM479.562 212V211H478.562V212H479.562ZM514.422 212H515.422V211H514.422V212ZM514.422 248.12H513.422V249.12H514.422V248.12ZM545.292 248.12V249.12H546.292V248.12H545.292ZM545.292 213H580.152V211H545.292V213ZM579.152 212V317H581.152V212H579.152ZM580.152 316H545.292V318H580.152V316ZM546.292 317V280.88H544.292V317H546.292ZM545.292 279.88H514.422V281.88H545.292V279.88ZM513.422 280.88V317H515.422V280.88H513.422ZM514.422 316H479.562V318H514.422V316ZM480.562 317V212H478.562V317H480.562ZM479.562 213H514.422V211H479.562V213ZM513.422 212V248.12H515.422V212H513.422ZM514.422 249.12H545.292V247.12H514.422V249.12ZM546.292 248.12V212H544.292V248.12H546.292ZM627.028 277.31V276.31H625.537L626.103 277.689L627.028 277.31ZM669.658 282.77L670.231 281.951L669.563 281.483L668.971 282.044L669.658 282.77ZM694.858 300.41L695.64 301.033L696.303 300.201L695.431 299.591L694.858 300.41ZM606.868 304.4L606.166 305.112L606.175 305.121L606.868 304.4ZM606.658 225.02L605.946 224.318L605.946 224.318L606.658 225.02ZM699.478 277.31V278.31H700.265L700.45 277.545L699.478 277.31ZM626.608 253.16L625.65 252.873L625.264 254.16H626.608V253.16ZM666.928 253.16V254.16H668.254L667.89 252.885L666.928 253.16ZM626.103 277.689C627.937 282.164 630.925 285.547 635.055 287.796C639.165 290.034 644.349 291.12 650.548 291.12V289.12C644.567 289.12 639.741 288.071 636.011 286.039C632.301 284.018 629.619 280.996 627.953 276.931L626.103 277.689ZM650.548 291.12C658.347 291.12 664.968 288.583 670.345 283.496L668.971 282.044C663.988 286.757 657.869 289.12 650.548 289.12V291.12ZM669.085 283.589L694.285 301.229L695.431 299.591L670.231 281.951L669.085 283.589ZM694.075 299.787C683.941 312.523 669.207 318.94 649.708 318.94V320.94C669.689 320.94 685.055 314.337 695.64 301.033L694.075 299.787ZM649.708 318.94C632.134 318.94 618.12 313.827 607.561 303.679L606.175 305.121C617.176 315.693 631.722 320.94 649.708 320.94V318.94ZM607.57 303.688C597.135 293.39 591.908 280.423 591.908 264.71H589.908C589.908 280.917 595.321 294.41 606.166 305.112L607.57 303.688ZM591.908 264.71C591.908 249.136 597.066 236.164 607.37 225.722L605.946 224.318C595.25 235.156 589.908 248.644 589.908 264.71H591.908ZM607.37 225.722C617.665 215.29 630.77 210.06 646.768 210.06V208.06C630.286 208.06 616.651 213.47 605.946 224.318L607.37 225.722ZM646.768 210.06C662.199 210.06 674.884 215.215 684.901 225.507L686.335 224.113C675.912 213.405 662.697 208.06 646.768 208.06V210.06ZM684.901 225.507C694.924 235.805 699.948 248.708 699.948 264.29H701.948C701.948 248.232 696.752 234.815 686.335 224.113L684.901 225.507ZM699.948 264.29C699.948 268.839 699.466 273.1 698.506 277.075L700.45 277.545C701.45 273.4 701.948 268.981 701.948 264.29H699.948ZM699.478 276.31H627.028V278.31H699.478V276.31ZM626.608 254.16H666.928V252.16H626.608V254.16ZM667.89 252.885C666.444 247.826 663.995 243.943 660.49 241.333C656.987 238.724 652.526 237.46 647.188 237.46V239.46C652.21 239.46 656.219 240.646 659.296 242.937C662.371 245.227 664.612 248.694 665.966 253.435L667.89 252.885ZM647.188 237.46C641.648 237.46 637.018 238.72 633.377 241.321C629.73 243.926 627.17 247.807 625.65 252.873L627.566 253.447C628.986 248.713 631.326 245.244 634.539 242.949C637.758 240.65 641.948 239.46 647.188 239.46V237.46ZM795.377 212H796.377V211H795.377V212ZM795.377 245.39V246.39H796.377V245.39H795.377ZM765.347 245.39V244.39H764.347V245.39H765.347ZM765.347 317V318H766.347V317H765.347ZM730.487 317H729.487V318H730.487V317ZM730.487 245.39H731.487V244.39H730.487V245.39ZM700.037 245.39H699.037V246.39H700.037V245.39ZM700.037 212V211H699.037V212H700.037ZM794.377 212V245.39H796.377V212H794.377ZM795.377 244.39H765.347V246.39H795.377V244.39ZM764.347 245.39V317H766.347V245.39H764.347ZM765.347 316H730.487V318H765.347V316ZM731.487 317V245.39H729.487V317H731.487ZM730.487 244.39H700.037V246.39H730.487V244.39ZM701.037 245.39V212H699.037V245.39H701.037ZM700.037 213H795.377V211H700.037V213Z" fill="#7E7E7E" mask="url(#path-1-outside-1_270_14)"/>
</svg>
