<svg width="50" height="50" viewBox="0 0 50 50" fill="none" xmlns="http://www.w3.org/2000/svg">
<circle cx="25" cy="25" r="24.5" fill="#A8AAB9" stroke="#D9D9D9"/>
<path d="M29.3375 19.3374L32.425 16.25L29.3375 13.1625C29.1719 12.9847 29.0818 12.7497 29.086 12.5068C29.0904 12.2639 29.1888 12.0322 29.3605 11.8604C29.5323 11.6887 29.764 11.5903 30.0069 11.586C30.2498 11.5817 30.4848 11.6719 30.6625 11.8375L33.75 14.9234L36.8375 11.8375C37.0153 11.6719 37.2503 11.5817 37.4931 11.586C37.736 11.5903 37.9678 11.6887 38.1395 11.8604C38.3113 12.0322 38.4098 12.2639 38.414 12.5068C38.4183 12.7497 38.3281 12.9847 38.1625 13.1625L35.075 16.25L38.1625 19.3374C38.2546 19.4233 38.3285 19.5268 38.3798 19.6418C38.431 19.7568 38.4585 19.8809 38.4608 20.0068C38.463 20.1327 38.4399 20.2578 38.3926 20.3744C38.3455 20.4912 38.2754 20.5973 38.1864 20.6863C38.0973 20.7753 37.9913 20.8455 37.8745 20.8927C37.7578 20.9398 37.6328 20.9629 37.5069 20.9607C37.381 20.9585 37.2569 20.9309 37.1419 20.8797C37.0269 20.8284 36.9234 20.7545 36.8375 20.6624L33.75 17.5749L30.6625 20.6624C30.4848 20.828 30.2498 20.9183 30.0069 20.9139C29.764 20.9097 29.5323 20.8113 29.3605 20.6395C29.1888 20.4678 29.0904 20.236 29.086 19.9932C29.0818 19.7503 29.1719 19.5152 29.3375 19.3374ZM40.9204 32.3172C40.6516 34.3589 39.6488 36.2329 38.0993 37.5893C36.5496 38.9455 34.5594 39.6914 32.5 39.6874C20.2656 39.6874 10.3125 29.7343 10.3125 17.5C10.3086 15.4407 11.0544 13.4503 12.4108 11.9008C13.7671 10.3512 15.6411 9.34841 17.6829 9.07966C18.1526 9.02242 18.6284 9.11911 19.0385 9.35519C19.4488 9.59128 19.7713 9.95404 19.9579 10.389L23.2548 17.7499C23.4003 18.0832 23.4605 18.4473 23.43 18.8097C23.3994 19.1719 23.279 19.5209 23.0798 19.8249C23.0596 19.8559 23.0378 19.8857 23.0141 19.914L19.7219 23.8297C19.7019 23.8703 19.6915 23.9149 19.6915 23.9602C19.6915 24.0054 19.7019 24.05 19.7219 24.0905C20.9188 26.5405 23.4875 29.0905 25.9719 30.2859C26.0134 30.3048 26.0586 30.3138 26.1043 30.3122C26.1498 30.3105 26.1944 30.2984 26.2344 30.2765L30.0923 26.9953C30.1198 26.9713 30.149 26.9494 30.1798 26.9297C30.4824 26.7278 30.8308 26.6047 31.193 26.5714C31.5554 26.5382 31.9203 26.5958 32.2548 26.739L39.636 30.0468C40.0655 30.2372 40.4223 30.5608 40.6535 30.9697C40.8849 31.3785 40.9784 31.851 40.9204 32.3172ZM39.0625 32.0812C39.0678 32.0159 39.0524 31.9505 39.0184 31.8945C38.9845 31.8384 38.9338 31.7944 38.8735 31.7687L31.4906 28.4609C31.4503 28.4453 31.4071 28.4387 31.3639 28.4414C31.3208 28.444 31.2788 28.456 31.2406 28.4765L27.3844 31.7578C27.3563 31.7812 27.3266 31.803 27.2969 31.8234C26.9824 32.0332 26.6188 32.1578 26.2418 32.1852C25.8646 32.2125 25.4869 32.1418 25.1454 31.9797C22.2766 30.5937 19.4173 27.7609 18.0313 24.9187C17.8683 24.5792 17.7958 24.2033 17.8206 23.8274C17.8455 23.4515 17.967 23.0885 18.1735 22.7734C18.1936 22.742 18.216 22.7123 18.2406 22.6843L21.5313 18.7687C21.5501 18.7278 21.5598 18.6833 21.5598 18.6383C21.5598 18.5932 21.5501 18.5487 21.5313 18.5078L18.2406 11.1422C18.2189 11.083 18.1799 11.0319 18.1285 10.9953C18.0773 10.9588 18.0161 10.9386 17.9531 10.9375H17.9173C16.3281 11.1489 14.8702 11.9314 13.8158 13.1391C12.7614 14.3467 12.1826 15.8968 12.1875 17.5C12.1875 28.6999 21.3 37.8124 32.5 37.8124C34.1034 37.8173 35.6538 37.2383 36.8614 36.1837C38.069 35.1289 38.8515 33.6707 39.0625 32.0812Z" fill="#343330"/>
</svg>
