<svg width="30" height="30" viewBox="0 0 30 30" fill="none" xmlns="http://www.w3.org/2000/svg">
<path opacity="0.2" d="M15.9375 15L11.25 19.6875V10.3125L15.9375 15Z" fill="#DFE0E7"/>
<path d="M16.6008 14.3367L11.9133 9.64922C11.7821 9.51797 11.6151 9.42853 11.4331 9.39234C11.2511 9.35608 11.0625 9.37465 10.8911 9.44569C10.7197 9.51666 10.5733 9.63694 10.4703 9.79125C10.3672 9.94556 10.3123 10.127 10.3125 10.3125V14.0625H2.8125C2.56386 14.0625 2.3254 14.1613 2.14958 14.3371C1.97378 14.5129 1.875 14.7514 1.875 15C1.875 15.2486 1.97378 15.4871 2.14958 15.6629C2.3254 15.8387 2.56386 15.9375 2.8125 15.9375H10.3125V19.6875C10.3123 19.873 10.3672 20.0544 10.4703 20.2087C10.5733 20.3631 10.7197 20.4833 10.8911 20.5543C11.0625 20.6254 11.2511 20.6439 11.4331 20.6077C11.6151 20.5715 11.7821 20.482 11.9133 20.3508L16.6008 15.6633C16.688 15.5762 16.7571 15.4728 16.8043 15.359C16.8515 15.2452 16.8757 15.1232 16.8757 15C16.8757 14.8768 16.8515 14.7548 16.8043 14.641C16.7571 14.5272 16.688 14.4238 16.6008 14.3367ZM12.1875 17.4247V12.5753L14.6122 15L12.1875 17.4247ZM24.375 5.625V24.375C24.375 24.8722 24.1775 25.3492 23.8258 25.7008C23.4742 26.0525 22.9972 26.25 22.5 26.25H15.9375C15.6889 26.25 15.4504 26.1512 15.2746 25.9754C15.0988 25.7996 15 25.5611 15 25.3125C15 25.0639 15.0988 24.8254 15.2746 24.6496C15.4504 24.4738 15.6889 24.375 15.9375 24.375H22.5V5.625H15.9375C15.6889 5.625 15.4504 5.52622 15.2746 5.35042C15.0988 5.1746 15 4.93614 15 4.6875C15 4.43886 15.0988 4.2004 15.2746 4.02458C15.4504 3.84878 15.6889 3.75 15.9375 3.75H22.5C22.9972 3.75 23.4742 3.94754 23.8258 4.29918C24.1775 4.65081 24.375 5.12772 24.375 5.625Z" fill="#DFE0E7"/>
</svg>
