<svg width="150" height="150" viewBox="0 0 150 150" fill="none" xmlns="http://www.w3.org/2000/svg">
<g filter="url(#filter0_i_228_3)">
<circle cx="75" cy="75" r="74.5" fill="#3C4C34" stroke="#636363"/>
<path opacity="0.2" d="M75.9375 73L71.25 77.6875V68.3125L75.9375 73Z" fill="#DFE0E7"/>
<path d="M76.6008 72.3367L71.9133 67.6492C71.7821 67.518 71.6151 67.4285 71.4331 67.3923C71.2511 67.3561 71.0625 67.3747 70.8911 67.4457C70.7197 67.5167 70.5733 67.6369 70.4703 67.7913C70.3672 67.9456 70.3123 68.127 70.3125 68.3125V72.0625H62.8125C62.5639 72.0625 62.3254 72.1613 62.1496 72.3371C61.9738 72.5129 61.875 72.7514 61.875 73C61.875 73.2486 61.9738 73.4871 62.1496 73.6629C62.3254 73.8387 62.5639 73.9375 62.8125 73.9375H70.3125V77.6875C70.3123 77.873 70.3672 78.0544 70.4703 78.2087C70.5733 78.3631 70.7197 78.4833 70.8911 78.5543C71.0625 78.6254 71.2511 78.6439 71.4331 78.6077C71.6151 78.5715 71.7821 78.482 71.9133 78.3508L76.6008 73.6633C76.688 73.5762 76.7571 73.4728 76.8043 73.359C76.8515 73.2452 76.8757 73.1232 76.8757 73C76.8757 72.8768 76.8515 72.7548 76.8043 72.641C76.7571 72.5272 76.688 72.4238 76.6008 72.3367ZM72.1875 75.4247V70.5753L74.6122 73L72.1875 75.4247ZM84.375 63.625V82.375C84.375 82.8722 84.1775 83.3492 83.8258 83.7008C83.4742 84.0525 82.9972 84.25 82.5 84.25H75.9375C75.6889 84.25 75.4504 84.1512 75.2746 83.9754C75.0988 83.7996 75 83.5611 75 83.3125C75 83.0639 75.0988 82.8254 75.2746 82.6496C75.4504 82.4738 75.6889 82.375 75.9375 82.375H82.5V63.625H75.9375C75.6889 63.625 75.4504 63.5262 75.2746 63.3504C75.0988 63.1746 75 62.9361 75 62.6875C75 62.4389 75.0988 62.2004 75.2746 62.0246C75.4504 61.8488 75.6889 61.75 75.9375 61.75H82.5C82.9972 61.75 83.4742 61.9475 83.8258 62.2992C84.1775 62.6508 84.375 63.1277 84.375 63.625Z" fill="#DFE0E7"/>
</g>
<defs>
<filter id="filter0_i_228_3" x="0" y="0" width="150" height="154" filterUnits="userSpaceOnUse" color-interpolation-filters="sRGB">
<feFlood flood-opacity="0" result="BackgroundImageFix"/>
<feBlend mode="normal" in="SourceGraphic" in2="BackgroundImageFix" result="shape"/>
<feColorMatrix in="SourceAlpha" type="matrix" values="0 0 0 0 0 0 0 0 0 0 0 0 0 0 0 0 0 0 127 0" result="hardAlpha"/>
<feOffset dy="4"/>
<feGaussianBlur stdDeviation="2"/>
<feComposite in2="hardAlpha" operator="arithmetic" k2="-1" k3="1"/>
<feColorMatrix type="matrix" values="0 0 0 0 0 0 0 0 0 0 0 0 0 0 0 0 0 0 0.25 0"/>
<feBlend mode="normal" in2="shape" result="effect1_innerShadow_228_3"/>
</filter>
</defs>
</svg>
