<svg width="150" height="150" viewBox="0 0 150 150" fill="none" xmlns="http://www.w3.org/2000/svg">
<g filter="url(#filter0_i_228_4)">
<circle cx="75" cy="75" r="74.5" fill="#422222" stroke="#636363"/>
<path opacity="0.2" d="M75.9375 73.4797L71.25 78.1672V68.7922L75.9375 73.4797Z" fill="#DFE0E7"/>
<path d="M76.6008 72.8165L71.9133 68.129C71.7821 67.9977 71.6151 67.9083 71.4331 67.8721C71.2511 67.8358 71.0625 67.8544 70.8911 67.9254C70.7197 67.9964 70.5733 68.1167 70.4703 68.271C70.3672 68.4253 70.3123 68.6067 70.3125 68.7922V72.5422H62.8125C62.5639 72.5422 62.3254 72.641 62.1496 72.8168C61.9738 72.9926 61.875 73.2311 61.875 73.4797C61.875 73.7284 61.9738 73.9669 62.1496 74.1426C62.3254 74.3184 62.5639 74.4172 62.8125 74.4172H70.3125V78.1672C70.3123 78.3528 70.3672 78.5342 70.4703 78.6885C70.5733 78.8428 70.7197 78.9631 70.8911 79.034C71.0625 79.1051 71.2511 79.1237 71.4331 79.0874C71.6151 79.0512 71.7821 78.9618 71.9133 78.8305L76.6008 74.143C76.688 74.0559 76.7571 73.9525 76.8043 73.8387C76.8515 73.7249 76.8757 73.6029 76.8757 73.4797C76.8757 73.3565 76.8515 73.2346 76.8043 73.1208C76.7571 73.007 76.688 72.9035 76.6008 72.8165ZM72.1875 75.9044V71.0551L74.6122 73.4797L72.1875 75.9044ZM84.375 64.1047V82.8547C84.375 83.352 84.1775 83.8289 83.8258 84.1805C83.4742 84.5322 82.9972 84.7297 82.5 84.7297H75.9375C75.6889 84.7297 75.4504 84.6309 75.2746 84.4551C75.0988 84.2794 75 84.0409 75 83.7922C75 83.5436 75.0988 83.3051 75.2746 83.1293C75.4504 82.9535 75.6889 82.8547 75.9375 82.8547H82.5V64.1047H75.9375C75.6889 64.1047 75.4504 64.006 75.2746 63.8302C75.0988 63.6543 75 63.4159 75 63.1672C75 62.9186 75.0988 62.6801 75.2746 62.5043C75.4504 62.3285 75.6889 62.2297 75.9375 62.2297H82.5C82.9972 62.2297 83.4742 62.4273 83.8258 62.7789C84.1775 63.1305 84.375 63.6075 84.375 64.1047Z" fill="#DFE0E7"/>
</g>
<defs>
<filter id="filter0_i_228_4" x="0" y="0" width="150" height="154" filterUnits="userSpaceOnUse" color-interpolation-filters="sRGB">
<feFlood flood-opacity="0" result="BackgroundImageFix"/>
<feBlend mode="normal" in="SourceGraphic" in2="BackgroundImageFix" result="shape"/>
<feColorMatrix in="SourceAlpha" type="matrix" values="0 0 0 0 0 0 0 0 0 0 0 0 0 0 0 0 0 0 127 0" result="hardAlpha"/>
<feOffset dy="4"/>
<feGaussianBlur stdDeviation="2"/>
<feComposite in2="hardAlpha" operator="arithmetic" k2="-1" k3="1"/>
<feColorMatrix type="matrix" values="0 0 0 0 0 0 0 0 0 0 0 0 0 0 0 0 0 0 0.25 0"/>
<feBlend mode="normal" in2="shape" result="effect1_innerShadow_228_4"/>
</filter>
</defs>
</svg>
