<svg width="150" height="150" viewBox="0 0 150 150" fill="none" xmlns="http://www.w3.org/2000/svg">
<g filter="url(#filter0_i_228_7)">
<circle cx="75" cy="75" r="74.5" fill="#3E090F" stroke="#636363"/>
<path opacity="0.2" d="M75.9375 75L71.25 79.6875V70.3125L75.9375 75Z" fill="#DFE0E7"/>
<path d="M76.6008 74.3367L71.9133 69.6492C71.7821 69.518 71.6151 69.4285 71.4331 69.3923C71.2511 69.3561 71.0625 69.3747 70.8911 69.4457C70.7197 69.5167 70.5733 69.6369 70.4703 69.7913C70.3672 69.9456 70.3123 70.127 70.3125 70.3125V74.0625H62.8125C62.5639 74.0625 62.3254 74.1613 62.1496 74.3371C61.9738 74.5129 61.875 74.7514 61.875 75C61.875 75.2486 61.9738 75.4871 62.1496 75.6629C62.3254 75.8387 62.5639 75.9375 62.8125 75.9375H70.3125V79.6875C70.3123 79.873 70.3672 80.0544 70.4703 80.2087C70.5733 80.3631 70.7197 80.4833 70.8911 80.5543C71.0625 80.6254 71.2511 80.6439 71.4331 80.6077C71.6151 80.5715 71.7821 80.482 71.9133 80.3508L76.6008 75.6633C76.688 75.5762 76.7571 75.4728 76.8043 75.359C76.8515 75.2452 76.8757 75.1232 76.8757 75C76.8757 74.8768 76.8515 74.7548 76.8043 74.641C76.7571 74.5272 76.688 74.4238 76.6008 74.3367ZM72.1875 77.4247V72.5753L74.6122 75L72.1875 77.4247ZM84.375 65.625V84.375C84.375 84.8722 84.1775 85.3492 83.8258 85.7008C83.4742 86.0525 82.9972 86.25 82.5 86.25H75.9375C75.6889 86.25 75.4504 86.1512 75.2746 85.9754C75.0988 85.7996 75 85.5611 75 85.3125C75 85.0639 75.0988 84.8254 75.2746 84.6496C75.4504 84.4738 75.6889 84.375 75.9375 84.375H82.5V65.625H75.9375C75.6889 65.625 75.4504 65.5262 75.2746 65.3504C75.0988 65.1746 75 64.9361 75 64.6875C75 64.4389 75.0988 64.2004 75.2746 64.0246C75.4504 63.8488 75.6889 63.75 75.9375 63.75H82.5C82.9972 63.75 83.4742 63.9475 83.8258 64.2992C84.1775 64.6508 84.375 65.1277 84.375 65.625Z" fill="#DFE0E7"/>
</g>
<defs>
<filter id="filter0_i_228_7" x="0" y="0" width="150" height="154" filterUnits="userSpaceOnUse" color-interpolation-filters="sRGB">
<feFlood flood-opacity="0" result="BackgroundImageFix"/>
<feBlend mode="normal" in="SourceGraphic" in2="BackgroundImageFix" result="shape"/>
<feColorMatrix in="SourceAlpha" type="matrix" values="0 0 0 0 0 0 0 0 0 0 0 0 0 0 0 0 0 0 127 0" result="hardAlpha"/>
<feOffset dy="4"/>
<feGaussianBlur stdDeviation="2"/>
<feComposite in2="hardAlpha" operator="arithmetic" k2="-1" k3="1"/>
<feColorMatrix type="matrix" values="0 0 0 0 0 0 0 0 0 0 0 0 0 0 0 0 0 0 0.25 0"/>
<feBlend mode="normal" in2="shape" result="effect1_innerShadow_228_7"/>
</filter>
</defs>
</svg>
