<svg width="150" height="150" viewBox="0 0 150 150" fill="none" xmlns="http://www.w3.org/2000/svg">
<g filter="url(#filter0_i_68_696)">
<circle cx="75" cy="75" r="74.5" fill="#3B2643" stroke="#636363"/>
<path d="M78.3939 74.7776L78.3937 74.7774L73.7062 70.6138L73.7061 70.6136C73.6477 70.5618 73.5668 70.5211 73.4711 70.5042L73.4709 70.5041C73.3751 70.4871 73.2762 70.4962 73.1889 70.5284L73.1887 70.5284C73.1017 70.5604 73.0364 70.6114 72.995 70.6665C72.9543 70.7207 72.9374 70.777 72.9375 70.8285V70.8291V74.16V74.66H72.4375H64.9375C64.8037 74.66 64.6854 74.7078 64.6066 74.7778C64.5298 74.8459 64.5 74.9249 64.5 74.9927L78.3939 74.7776ZM78.3939 74.7776C78.4322 74.8116 78.4592 74.8488 78.4763 74.8856L78.9293 74.6739M78.3939 74.7776L72.9375 75.3255M72.9375 75.3255V75.8255V79.1564V79.1569C72.9374 79.2085 72.9543 79.2648 72.995 79.3189C73.0364 79.374 73.1017 79.425 73.1887 79.4571L73.1889 79.4571C73.2762 79.4893 73.375 79.4983 73.4709 79.4814L73.4711 79.4813C73.5668 79.4644 73.6477 79.4237 73.7061 79.3718L73.7062 79.3717L78.3937 75.2081L78.3939 75.2079C78.4322 75.1739 78.4592 75.1366 78.4763 75.0999L78.9293 75.3116M72.9375 75.3255H72.4375M72.9375 75.3255H72.4375M78.9293 75.3116L78.4762 75.1002C78.4931 75.064 78.5008 75.0276 78.5008 74.9927C78.5008 74.9578 78.4931 74.9215 78.4762 74.8853L78.9293 74.6739M78.9293 75.3116C78.9765 75.2105 79.0008 75.1022 79.0008 74.9927C79.0008 74.8833 78.9765 74.775 78.9293 74.6739M78.9293 75.3116C78.8821 75.4127 78.813 75.5045 78.7258 75.5819L78.9293 74.6739M72.4375 75.3255H64.9375C64.8037 75.3255 64.6854 75.2777 64.6066 75.2077L72.4375 75.3255ZM85.125 83.82H84.625H78.0625C77.9286 83.82 77.8104 83.8678 77.7316 83.9377C77.6548 84.006 77.625 84.0849 77.625 84.1527C77.625 84.2205 77.6548 84.2995 77.7316 84.3677C77.8104 84.4377 77.9286 84.4855 78.0625 84.4855H84.625C85.0075 84.4855 85.3642 84.35 85.6188 84.1238C85.8714 83.8994 86 83.6087 86 83.32V66.6655C86 66.3768 85.8714 66.086 85.6188 65.8616L85.9508 65.4878L85.6188 65.8616C85.3642 65.6355 85.0075 65.5 84.625 65.5H78.0625L85.125 83.82ZM85.125 83.82V83.32M85.125 83.82V83.32M85.125 83.32V66.6655V66.1655M85.125 83.32V66.1655M85.125 66.1655H84.625M85.125 66.1655H84.625M84.625 66.1655H78.0625M84.625 66.1655H78.0625M77.7317 66.0478C77.6548 65.9795 77.625 65.9005 77.625 65.8327C77.625 65.7649 77.6548 65.686 77.7317 65.6177V66.0478ZM77.7317 66.0478C77.8103 66.1177 77.9286 66.1655 78.0625 66.1655M77.7317 66.0478L78.0625 66.1655M73.8125 77.1464V78.2593L74.6445 77.5202L77.0692 75.3666L77.4901 74.9927L77.0692 74.6189L74.6445 72.4652L73.8125 71.7262V72.8391V77.1464Z" fill="#5C5C5C" stroke="#DFE0E7"/>
</g>
<defs>
<filter id="filter0_i_68_696" x="0" y="0" width="150" height="154" filterUnits="userSpaceOnUse" color-interpolation-filters="sRGB">
<feFlood flood-opacity="0" result="BackgroundImageFix"/>
<feBlend mode="normal" in="SourceGraphic" in2="BackgroundImageFix" result="shape"/>
<feColorMatrix in="SourceAlpha" type="matrix" values="0 0 0 0 0 0 0 0 0 0 0 0 0 0 0 0 0 0 127 0" result="hardAlpha"/>
<feOffset dy="4"/>
<feGaussianBlur stdDeviation="2"/>
<feComposite in2="hardAlpha" operator="arithmetic" k2="-1" k3="1"/>
<feColorMatrix type="matrix" values="0 0 0 0 0 0 0 0 0 0 0 0 0 0 0 0 0 0 0.25 0"/>
<feBlend mode="normal" in2="shape" result="effect1_innerShadow_68_696"/>
</filter>
</defs>
</svg>
