<svg width="150" height="150" viewBox="0 0 150 150" fill="none" xmlns="http://www.w3.org/2000/svg">
<circle cx="75" cy="75" r="74.5" fill="#242E3B" stroke="#636363"/>
<path d="M72.0402 79.1675V76.0987V75.5987H71.5402H64.0045C63.7381 75.5987 63.4826 75.5047 63.2942 75.3374L72.0402 79.1675ZM72.0402 79.1675C72.04 79.3441 72.0988 79.5168 72.2092 79.6636C72.3196 79.8105 72.4765 79.9249 72.6601 79.9925C72.8437 80.0601 73.0458 80.0778 73.2408 80.0432L72.0402 79.1675ZM85.5982 84.1286H85.0982H78.067C77.9153 84.1286 77.78 84.1827 77.6888 84.2637C77.5994 84.3431 77.5625 84.4372 77.5625 84.5208C77.5625 84.6044 77.5994 84.6985 77.6888 84.7779C77.78 84.8589 77.9153 84.913 78.067 84.913H85.0982C85.5162 84.913 85.907 84.765 86.1867 84.5165C86.4645 84.2698 86.6071 83.9488 86.6071 83.6286V65.7844C86.6071 65.4642 86.4644 65.1432 86.1867 64.8965L86.5187 64.5226L86.1867 64.8965C85.907 64.648 85.5162 64.5 85.0982 64.5H78.067C77.9153 64.5 77.78 64.5541 77.6888 64.6351C77.6888 64.6351 77.6888 64.6351 77.6888 64.6351L85.5982 84.1286ZM85.5982 84.1286V83.6286M85.5982 84.1286V83.6286M85.5982 83.6286V65.7844V65.2844M85.5982 83.6286V65.2844M85.5982 65.2844H85.0982M85.5982 65.2844H85.0982M85.0982 65.2844H78.067M85.0982 65.2844H78.067M78.067 65.2844C77.9153 65.2844 77.78 65.2304 77.6888 65.1493L78.067 65.2844ZM78.4456 74.4491L78.4458 74.4493C78.4903 74.4888 78.5222 74.5326 78.5427 74.5766C78.5629 74.62 78.5722 74.6639 78.5722 74.7065C78.5722 74.7491 78.5629 74.793 78.5427 74.8364C78.5222 74.8804 78.4903 74.9242 78.4458 74.9637L78.4456 74.9639L73.4233 79.425L73.4231 79.4251C73.3554 79.4853 73.2626 79.5317 73.1538 79.5509L73.1536 79.5509C73.0447 79.5702 72.9324 79.5599 72.8329 79.5233L72.8327 79.5232C72.7334 79.4867 72.6577 79.4281 72.6089 79.3632C72.5609 79.2993 72.5401 79.2314 72.5402 79.1681V79.1675V75.5987V75.0987H72.0402H64.0045C63.8528 75.0987 63.7176 75.0447 63.6262 74.9635C63.5369 74.8842 63.5 74.7901 63.5 74.7065C63.5 74.6229 63.5369 74.5288 63.6262 74.4495C63.7176 74.3684 63.8528 74.3143 64.0045 74.3143H72.0402H72.5402V73.8143V70.2455V70.2449C72.5401 70.1816 72.5609 70.1137 72.6089 70.0498C72.6577 69.9849 72.7334 69.9263 72.8327 69.8898L72.8329 69.8897C72.9324 69.8531 73.0448 69.8428 73.1537 69.8621L73.1538 69.8621C73.2626 69.8813 73.3554 69.9277 73.4231 69.9879L73.4233 69.988L78.4456 74.4491ZM73.5491 77.014V78.1269L74.3812 77.3878L76.979 75.0803L77.3999 74.7065L76.979 74.3327L74.3812 72.0252L73.5491 71.2861V72.399V77.014Z" fill="#616161" stroke="#DFE0E7"/>
</svg>
