<svg width="16" height="20" viewBox="0 0 16 20" fill="none" xmlns="http://www.w3.org/2000/svg">
<path d="M11.2649 10.3313L6.26493 16.5813C6.19383 16.6641 6.09978 16.7092 6.00263 16.7071C5.90548 16.7049 5.81284 16.6557 5.74409 16.5698C5.67539 16.4839 5.63603 16.3681 5.63433 16.2466C5.63263 16.1252 5.66869 16.0077 5.73494 15.9188L10.4693 10.0001L5.73494 4.0813C5.66869 3.99245 5.63263 3.87492 5.63433 3.75348C5.63603 3.63204 5.67539 3.51617 5.74409 3.43029C5.81284 3.34441 5.90548 3.29521 6.00263 3.29307C6.09978 3.29093 6.19383 3.336 6.26493 3.4188L11.2649 9.66881C11.3351 9.75669 11.3746 9.87581 11.3746 10.0001C11.3746 10.1242 11.3351 10.2434 11.2649 10.3313Z" fill="#CDCDCD"/>
</svg>
