<svg width="24" height="24" viewBox="0 0 24 24" fill="none" xmlns="http://www.w3.org/2000/svg">
<path d="M15.6008 11.3367L10.9133 6.64922C10.7821 6.51797 10.6151 6.42853 10.4331 6.39234C10.2511 6.35608 10.0625 6.37465 9.89112 6.44569C9.71975 6.51666 9.57331 6.63694 9.47028 6.79125C9.36725 6.94556 9.31231 7.12697 9.3125 7.3125V11.0625H1.8125C1.56386 11.0625 1.3254 11.1613 1.14958 11.3371C0.973775 11.5129 0.875 11.7514 0.875 12C0.875 12.2486 0.973775 12.4871 1.14958 12.6629C1.3254 12.8387 1.56386 12.9375 1.8125 12.9375H9.3125V16.6875C9.31231 16.873 9.36725 17.0544 9.47028 17.2087C9.57331 17.3631 9.71975 17.4833 9.89112 17.5543C10.0625 17.6254 10.2511 17.6439 10.4331 17.6077C10.6151 17.5715 10.7821 17.482 10.9133 17.3508L15.6008 12.6633C15.688 12.5762 15.7571 12.4728 15.8043 12.359C15.8515 12.2452 15.8757 12.1232 15.8757 12C15.8757 11.8768 15.8515 11.7548 15.8043 11.641C15.7571 11.5272 15.688 11.4238 15.6008 11.3367ZM11.1875 14.4247V9.57534L13.6122 12L11.1875 14.4247ZM23.375 2.625V21.375C23.375 21.8722 23.1775 22.3492 22.8258 22.7008C22.4742 23.0525 21.9972 23.25 21.5 23.25H14.9375C14.6889 23.25 14.4504 23.1512 14.2746 22.9754C14.0988 22.7996 14 22.5611 14 22.3125C14 22.0639 14.0988 21.8254 14.2746 21.6496C14.4504 21.4738 14.6889 21.375 14.9375 21.375H21.5V2.625H14.9375C14.6889 2.625 14.4504 2.52622 14.2746 2.35042C14.0988 2.1746 14 1.93614 14 1.6875C14 1.43886 14.0988 1.2004 14.2746 1.02458C14.4504 0.848775 14.6889 0.75 14.9375 0.75H21.5C21.9972 0.75 22.4742 0.947541 22.8258 1.29918C23.1775 1.65081 23.375 2.12772 23.375 2.625Z" fill="#DFE0E7"/>
</svg>
