<svg width="23" height="23" viewBox="0 0 23 23" fill="none" xmlns="http://www.w3.org/2000/svg">
<path d="M9.37469 21.5618C9.37469 21.8104 9.27588 22.0489 9.1001 22.2247C8.92433 22.4004 8.68584 22.4993 8.43722 22.4993H1.87494C1.37768 22.4993 0.900776 22.3017 0.54916 21.9501C0.197534 21.5984 0 21.1215 0 20.6243V1.87494C0 1.37768 0.197534 0.900776 0.54916 0.54916C0.900776 0.197534 1.37768 0 1.87494 0H8.43722C8.68584 0 8.92433 0.0987718 9.1001 0.274575C9.27588 0.450388 9.37469 0.688833 9.37469 0.937469C9.37469 1.1861 9.27588 1.42455 9.1001 1.60036C8.92433 1.77617 8.68584 1.87494 8.43722 1.87494H1.87494V20.6243H8.43722C8.68584 20.6243 8.92433 20.7231 9.1001 20.8989C9.27588 21.0747 9.37469 21.3132 9.37469 21.5618ZM22.225 11.9129L17.5377 16.6002C17.4065 16.7315 17.2395 16.8209 17.0575 16.8571C16.8756 16.8934 16.6869 16.8748 16.5156 16.8038C16.3442 16.7328 16.1978 16.6125 16.0947 16.4582C15.9917 16.3039 15.9368 16.1225 15.937 15.937V12.1871H8.43722C8.1886 12.1871 7.95011 12.0883 7.77433 11.9125C7.59856 11.7367 7.49975 11.4982 7.49975 11.2496C7.49975 11.001 7.59856 10.7625 7.77433 10.5867C7.95011 10.411 8.1886 10.3122 8.43722 10.3122H15.937V6.56228C15.9368 6.37676 15.9917 6.19536 16.0947 6.04105C16.1978 5.88674 16.3442 5.76646 16.5156 5.6955C16.6869 5.62447 16.8756 5.60589 17.0575 5.64216C17.2395 5.67834 17.4065 5.76778 17.5377 5.89902L22.225 10.5864C22.3122 10.6735 22.3813 10.7769 22.4286 10.8907C22.4757 11.0045 22.5 11.1264 22.5 11.2496C22.5 11.3728 22.4757 11.4948 22.4286 11.6086C22.3813 11.7224 22.3122 11.8258 22.225 11.9129ZM20.2329 11.2496L17.8119 8.82505V13.6742L20.2329 11.2496Z" fill="#DFE0E7"/>
</svg>
