<svg width="600" height="235" viewBox="0 0 600 235" fill="none" xmlns="http://www.w3.org/2000/svg">
<mask id="path-1-outside-1_310_4" maskUnits="userSpaceOnUse" x="44" y="3" width="552" height="227" fill="black">
<rect fill="white" x="44" y="3" width="552" height="227"/>
<path d="M362.213 59.7H369.713V90.4H351.913V77H319.213V90.4H301.313V59.7H308.713C311.913 54.5667 313.512 47.1667 313.512 37.5V7H362.213V59.7ZM327.313 59.7H344.413V23.6H331.313V37.7C331.313 47.0333 329.979 54.3667 327.313 59.7ZM397.041 78.4C389.641 78.4 383.341 75.8667 378.141 70.8C372.941 65.6667 370.341 59.4 370.341 52C370.341 44.6 372.941 38.3667 378.141 33.3C383.341 28.1667 389.641 25.6 397.041 25.6C404.508 25.6 410.808 28.1667 415.941 33.3C421.141 38.3667 423.741 44.6 423.741 52C423.741 59.4 421.141 65.6667 415.941 70.8C410.808 75.8667 404.508 78.4 397.041 78.4ZM397.041 62.4C399.975 62.4 402.375 61.4333 404.241 59.5C406.175 57.5667 407.141 55.0667 407.141 52C407.141 48.9333 406.175 46.4333 404.241 44.5C402.375 42.5667 399.975 41.6 397.041 41.6C394.175 41.6 391.775 42.5667 389.841 44.5C387.975 46.4333 387.041 48.9333 387.041 52C387.041 55.0667 387.975 57.5667 389.841 59.5C391.775 61.4333 394.175 62.4 397.041 62.4ZM454.042 78.5C445.776 78.5 439.142 75.9667 434.142 70.9C429.209 65.7667 426.742 59.0667 426.742 50.8C426.742 42.4 428.076 35.7667 430.742 30.9C433.476 25.9667 438.309 21.8 445.242 18.4C452.709 14.7333 457.342 12.2 459.142 10.8C461.076 9.19999 462.576 7.16666 463.642 4.7L477.242 12.5C476.242 16.2333 474.342 19.2 471.542 21.4C468.809 23.6 464.676 25.8 459.142 28C454.742 29.7333 451.576 31.3 449.642 32.7C447.776 34.0333 446.442 35.6333 445.642 37.5C448.976 34.6333 453.276 33.2 458.542 33.2C464.076 33.2 469.009 35.2 473.342 39.2C477.742 43.2 479.942 48.5 479.942 55.1C479.942 61.9 477.576 67.5 472.842 71.9C468.176 76.3 461.909 78.5 454.042 78.5ZM446.942 61.5C448.809 63.2333 451.109 64.1 453.842 64.1C456.576 64.1 458.809 63.2667 460.542 61.6C462.342 59.8667 463.242 57.7333 463.242 55.2C463.242 52.6 462.309 50.4667 460.442 48.8C458.642 47.0667 456.342 46.2 453.542 46.2C451.009 46.2 448.809 47 446.942 48.6C445.076 50.1333 444.142 52.2333 444.142 54.9C444.142 57.5667 445.076 59.7667 446.942 61.5ZM514.776 25.6C521.442 25.6 527.009 28.1333 531.476 33.2C536.009 38.2 538.276 44.4667 538.276 52C538.276 59.5333 536.009 65.8333 531.476 70.9C527.009 75.9 521.442 78.4 514.776 78.4C508.709 78.4 503.976 76.4 500.576 72.4V97H483.976V27H500.576V31.6C503.976 27.6 508.709 25.6 514.776 25.6ZM503.476 59.9C505.409 61.9 507.942 62.9 511.076 62.9C514.209 62.9 516.742 61.9 518.676 59.9C520.609 57.9 521.576 55.2667 521.576 52C521.576 48.7333 520.609 46.1 518.676 44.1C516.742 42.1 514.209 41.1 511.076 41.1C507.942 41.1 505.409 42.1 503.476 44.1C501.542 46.1 500.576 48.7333 500.576 52C500.576 55.2667 501.542 57.9 503.476 59.9ZM567.799 78.4C560.399 78.4 554.099 75.8667 548.899 70.8C543.699 65.6667 541.099 59.4 541.099 52C541.099 44.6 543.699 38.3667 548.899 33.3C554.099 28.1667 560.399 25.6 567.799 25.6C575.266 25.6 581.566 28.1667 586.699 33.3C591.899 38.3667 594.499 44.6 594.499 52C594.499 59.4 591.899 65.6667 586.699 70.8C581.566 75.8667 575.266 78.4 567.799 78.4ZM567.799 62.4C570.733 62.4 573.133 61.4333 574.999 59.5C576.933 57.5667 577.899 55.0667 577.899 52C577.899 48.9333 576.933 46.4333 574.999 44.5C573.133 42.5667 570.733 41.6 567.799 41.6C564.933 41.6 562.533 42.5667 560.599 44.5C558.733 46.4333 557.799 48.9333 557.799 52C557.799 55.0667 558.733 57.5667 560.599 59.5C562.533 61.4333 564.933 62.4 567.799 62.4ZM93.0438 102V152H76.4438V117.7H61.7438V152H45.1438V102H93.0438ZM124.866 153.4C117.466 153.4 111.166 150.867 105.966 145.8C100.766 140.667 98.1656 134.4 98.1656 127C98.1656 119.6 100.766 113.367 105.966 108.3C111.166 103.167 117.466 100.6 124.866 100.6C132.332 100.6 138.632 103.167 143.766 108.3C148.966 113.367 151.566 119.6 151.566 127C151.566 134.4 148.966 140.667 143.766 145.8C138.632 150.867 132.332 153.4 124.866 153.4ZM124.866 137.4C127.799 137.4 130.199 136.433 132.066 134.5C133.999 132.567 134.966 130.067 134.966 127C134.966 123.933 133.999 121.433 132.066 119.5C130.199 117.567 127.799 116.6 124.866 116.6C121.999 116.6 119.599 117.567 117.666 119.5C115.799 121.433 114.866 123.933 114.866 127C114.866 130.067 115.799 132.567 117.666 134.5C119.599 136.433 121.999 137.4 124.866 137.4ZM225.463 152H207.163L195.263 131.5V152H178.763V131.5L166.863 152H148.563L164.163 127L149.563 102H167.863L178.763 122.2V102H195.263V122.2L206.163 102H224.463L209.863 127L225.463 152ZM260.088 102H276.688V152H260.088V147.4C256.688 151.4 251.955 153.4 245.888 153.4C239.222 153.4 233.622 150.9 229.088 145.9C224.622 140.833 222.388 134.533 222.388 127C222.388 119.467 224.622 113.2 229.088 108.2C233.622 103.133 239.222 100.6 245.888 100.6C251.955 100.6 256.688 102.6 260.088 106.6V102ZM241.988 134.9C243.922 136.9 246.455 137.9 249.588 137.9C252.722 137.9 255.255 136.9 257.188 134.9C259.122 132.9 260.088 130.267 260.088 127C260.088 123.733 259.122 121.1 257.188 119.1C255.255 117.1 252.722 116.1 249.588 116.1C246.455 116.1 243.922 117.1 241.988 119.1C240.055 121.1 239.088 123.733 239.088 127C239.088 130.267 240.055 132.9 241.988 134.9ZM330.912 102V152H314.312V117.9H304.312V131.3C304.312 139.167 302.345 144.8 298.412 148.2C294.545 151.6 288.578 152.867 280.512 152V136.6C282.912 137.267 284.712 136.967 285.912 135.7C287.112 134.367 287.712 132.1 287.712 128.9V102H330.912ZM362.666 153.4C355.266 153.4 348.966 150.867 343.766 145.8C338.566 140.667 335.966 134.4 335.966 127C335.966 119.6 338.566 113.367 343.766 108.3C348.966 103.167 355.266 100.6 362.666 100.6C370.133 100.6 376.433 103.167 381.566 108.3C386.766 113.367 389.366 119.6 389.366 127C389.366 134.4 386.766 140.667 381.566 145.8C376.433 150.867 370.133 153.4 362.666 153.4ZM362.666 137.4C365.6 137.4 368 136.433 369.866 134.5C371.8 132.567 372.766 130.067 372.766 127C372.766 123.933 371.8 121.433 369.866 119.5C368 117.567 365.6 116.6 362.666 116.6C359.8 116.6 357.4 117.567 355.466 119.5C353.6 121.433 352.666 123.933 352.666 127C352.666 130.067 353.6 132.567 355.466 134.5C357.4 136.433 359.8 137.4 362.666 137.4ZM433.067 126.5C437.734 128.7 440.067 132.4 440.067 137.6C440.067 142 438.567 145.5 435.567 148.1C432.567 150.7 428.234 152 422.567 152H394.667V102H420.867C426.467 102 430.767 103.3 433.767 105.9C436.767 108.5 438.267 112 438.267 116.4C438.267 120.8 436.534 124.167 433.067 126.5ZM418.367 114.4H410.567V121H418.367C421.034 121 422.367 119.933 422.367 117.8C422.367 115.533 421.034 114.4 418.367 114.4ZM419.667 139.4C422.267 139.4 423.567 138.233 423.567 135.9C423.567 133.7 422.267 132.6 419.667 132.6H410.567V139.4H419.667ZM479.92 102H496.52V152H479.92V147.4C476.52 151.4 471.787 153.4 465.72 153.4C459.054 153.4 453.454 150.9 448.92 145.9C444.454 140.833 442.22 134.533 442.22 127C442.22 119.467 444.454 113.2 448.92 108.2C453.454 103.133 459.054 100.6 465.72 100.6C471.787 100.6 476.52 102.6 479.92 106.6V102ZM461.82 134.9C463.754 136.9 466.287 137.9 469.42 137.9C472.554 137.9 475.087 136.9 477.02 134.9C478.954 132.9 479.92 130.267 479.92 127C479.92 123.733 478.954 121.1 477.02 119.1C475.087 117.1 472.554 116.1 469.42 116.1C466.287 116.1 463.754 117.1 461.82 119.1C459.887 121.1 458.92 123.733 458.92 127C458.92 130.267 459.887 132.9 461.82 134.9ZM545.544 102V117.9H531.244V152H514.644V117.9H500.144V102H545.544ZM573.916 116.1C579.916 116.1 584.683 117.733 588.216 121C591.75 124.2 593.516 128.533 593.516 134C593.516 139.533 591.75 143.933 588.216 147.2C584.75 150.4 579.983 152 573.916 152H549.116V102H565.716V116.1H573.916ZM572.916 138.1C574.25 138.1 575.316 137.733 576.116 137C576.916 136.267 577.316 135.267 577.316 134C577.316 132.8 576.916 131.833 576.116 131.1C575.316 130.367 574.25 130 572.916 130H565.716V138.1H572.916ZM301.516 201.5C306.183 203.7 308.516 207.4 308.516 212.6C308.516 217 307.016 220.5 304.016 223.1C301.016 225.7 296.683 227 291.016 227H263.116V177H289.316C294.916 177 299.216 178.3 302.216 180.9C305.216 183.5 306.716 187 306.716 191.4C306.716 195.8 304.983 199.167 301.516 201.5ZM286.816 189.4H279.016V196H286.816C289.483 196 290.816 194.933 290.816 192.8C290.816 190.533 289.483 189.4 286.816 189.4ZM288.116 214.4C290.716 214.4 292.016 213.233 292.016 210.9C292.016 208.7 290.716 207.6 288.116 207.6H279.016V214.4H288.116ZM361.626 157C368.692 157 374.626 159.3 379.426 163.9C384.226 168.5 386.626 174.367 386.626 181.5C386.626 188.633 384.226 194.5 379.426 199.1C374.626 203.7 368.692 206 361.626 206H352.326V227H334.426V157H361.626ZM361.626 189C363.626 189 365.292 188.3 366.626 186.9C368.026 185.5 368.726 183.7 368.726 181.5C368.726 179.3 368.026 177.533 366.626 176.2C365.292 174.8 363.626 174.1 361.626 174.1H352.326V189H361.626ZM405.905 170.1C404.039 171.967 401.805 172.9 399.205 172.9C396.605 172.9 394.339 171.967 392.405 170.1C390.539 168.167 389.605 165.9 389.605 163.3C389.605 160.7 390.539 158.467 392.405 156.6C394.339 154.733 396.605 153.8 399.205 153.8C401.805 153.8 404.039 154.733 405.905 156.6C407.839 158.467 408.805 160.7 408.805 163.3C408.805 165.9 407.839 168.167 405.905 170.1ZM390.905 227V177H407.505V227H390.905ZM445.577 175.6C450.977 175.6 455.377 177.467 458.777 181.2C462.244 184.867 463.977 190.167 463.977 197.1V227H447.377V199.2C447.377 196.6 446.677 194.633 445.277 193.3C443.944 191.967 442.144 191.3 439.877 191.3C437.277 191.3 435.244 192.1 433.777 193.7C432.377 195.233 431.677 197.467 431.677 200.4V227H415.077V177H431.677V182C434.677 177.733 439.311 175.6 445.577 175.6ZM501.988 192.9H491.588V207.4C491.588 209.6 492.388 210.967 493.988 211.5C495.588 212.033 498.254 212.2 501.988 212V227C492.054 228.2 485.054 227.3 480.988 224.3C476.988 221.233 474.988 215.733 474.988 207.8V192.9H467.488V177H474.988V168L491.588 163V177H501.988V192.9ZM521.58 208.1C523.247 212.167 526.98 214.2 532.78 214.2C536.38 214.2 539.414 213.033 541.88 210.7L553.88 219.1C548.947 225.3 541.78 228.4 532.38 228.4C523.914 228.4 517.114 225.933 511.98 221C506.914 216 504.38 209.7 504.38 202.1C504.38 194.567 506.88 188.267 511.88 183.2C516.88 178.133 523.247 175.6 530.98 175.6C538.447 175.6 544.614 178.1 549.48 183.1C554.347 188.1 556.78 194.367 556.78 201.9C556.78 204.1 556.547 206.167 556.08 208.1H521.58ZM521.38 196.6H540.58C539.247 191.933 536.114 189.6 531.18 189.6C526.047 189.6 522.78 191.933 521.38 196.6ZM578.509 186.3C579.443 183.033 581.309 180.5 584.109 178.7C586.909 176.9 590.043 176 593.509 176V194.4C589.709 193.8 586.243 194.5 583.109 196.5C580.043 198.5 578.509 201.767 578.509 206.3V227H561.909V177H578.509V186.3Z"/>
</mask>
<path d="M362.213 59.7H361.213V60.7H362.213V59.7ZM369.713 59.7H370.713V58.7H369.713V59.7ZM369.713 90.4V91.4H370.713V90.4H369.713ZM351.913 90.4H350.913V91.4H351.913V90.4ZM351.913 77H352.913V76H351.913V77ZM319.213 77V76H318.213V77H319.213ZM319.213 90.4V91.4H320.213V90.4H319.213ZM301.313 90.4H300.313V91.4H301.313V90.4ZM301.313 59.7V58.7H300.313V59.7H301.313ZM308.713 59.7V60.7H309.268L309.561 60.229L308.713 59.7ZM313.512 7V6H312.512V7H313.512ZM362.213 7H363.213V6H362.213V7ZM327.313 59.7L326.418 59.2528L325.694 60.7H327.313V59.7ZM344.413 59.7V60.7H345.413V59.7H344.413ZM344.413 23.6H345.413V22.6H344.413V23.6ZM331.313 23.6V22.6H330.313V23.6H331.313ZM362.213 60.7H369.713V58.7H362.213V60.7ZM368.713 59.7V90.4H370.713V59.7H368.713ZM369.713 89.4H351.913V91.4H369.713V89.4ZM352.913 90.4V77H350.913V90.4H352.913ZM351.913 76H319.213V78H351.913V76ZM318.213 77V90.4H320.213V77H318.213ZM319.213 89.4H301.313V91.4H319.213V89.4ZM302.313 90.4V59.7H300.313V90.4H302.313ZM301.313 60.7H308.713V58.7H301.313V60.7ZM309.561 60.229C312.903 54.8685 314.512 47.2521 314.512 37.5H312.512C312.512 47.0813 310.922 54.2648 307.864 59.171L309.561 60.229ZM314.512 37.5V7H312.512V37.5H314.512ZM313.512 8H362.213V6H313.512V8ZM361.213 7V59.7H363.213V7H361.213ZM327.313 60.7H344.413V58.7H327.313V60.7ZM345.413 59.7V23.6H343.413V59.7H345.413ZM344.413 22.6H331.313V24.6H344.413V22.6ZM330.313 23.6V37.7H332.313V23.6H330.313ZM330.313 37.7C330.313 46.9571 328.987 54.115 326.418 59.2528L328.207 60.1472C330.971 54.6184 332.313 47.1096 332.313 37.7H330.313ZM378.141 70.8L377.439 71.5117L377.444 71.5162L378.141 70.8ZM378.141 33.3L378.839 34.0162L378.844 34.0117L378.141 33.3ZM415.941 33.3L415.234 34.0072L415.244 34.0162L415.941 33.3ZM415.941 70.8L416.644 71.5117L416.644 71.5117L415.941 70.8ZM404.241 59.5L403.534 58.7929L403.528 58.7991L403.522 58.8054L404.241 59.5ZM404.241 44.5L403.522 45.1946L403.528 45.2009L403.534 45.2071L404.241 44.5ZM389.841 44.5L389.134 43.7929L389.128 43.7991L389.122 43.8054L389.841 44.5ZM389.841 59.5L389.122 60.1946L389.128 60.2009L389.134 60.2071L389.841 59.5ZM397.041 77.4C389.897 77.4 383.849 74.9646 378.839 70.0838L377.444 71.5162C382.834 76.7687 389.386 79.4 397.041 79.4V77.4ZM378.844 70.0883C373.837 65.1456 371.341 59.1364 371.341 52H369.341C369.341 59.6636 372.046 66.1877 377.439 71.5117L378.844 70.0883ZM371.341 52C371.341 44.8639 373.837 38.8906 378.839 34.0162L377.444 32.5838C372.046 37.8427 369.341 44.3361 369.341 52H371.341ZM378.844 34.0117C383.854 29.0657 389.901 26.6 397.041 26.6V24.6C389.382 24.6 382.829 27.2676 377.439 32.5883L378.844 34.0117ZM397.041 26.6C404.251 26.6 410.294 29.0672 415.234 34.0071L416.649 32.5929C411.322 27.2661 404.765 24.6 397.041 24.6V26.6ZM415.244 34.0162C420.246 38.8906 422.741 44.8639 422.741 52H424.741C424.741 44.3361 422.037 37.8427 416.639 32.5838L415.244 34.0162ZM422.741 52C422.741 59.1364 420.246 65.1456 415.239 70.0883L416.644 71.5117C422.037 66.1877 424.741 59.6636 424.741 52H422.741ZM415.239 70.0883C410.3 74.9631 404.255 77.4 397.041 77.4V79.4C404.761 79.4 411.316 76.7702 416.644 71.5117L415.239 70.0883ZM397.041 63.4C400.219 63.4 402.887 62.342 404.961 60.1946L403.522 58.8054C401.862 60.5246 399.731 61.4 397.041 61.4V63.4ZM404.949 60.2071C407.093 58.0627 408.141 55.2966 408.141 52H406.141C406.141 54.8367 405.257 57.0706 403.534 58.7929L404.949 60.2071ZM408.141 52C408.141 48.7034 407.093 45.9373 404.949 43.7929L403.534 45.2071C405.257 46.9294 406.141 49.1633 406.141 52H408.141ZM404.961 43.8054C402.887 41.658 400.219 40.6 397.041 40.6V42.6C399.731 42.6 401.862 43.4754 403.522 45.1946L404.961 43.8054ZM397.041 40.6C393.924 40.6 391.265 41.6621 389.134 43.7929L390.549 45.2071C392.284 43.4712 394.426 42.6 397.041 42.6V40.6ZM389.122 43.8054C387.05 45.9518 386.041 48.7137 386.041 52H388.041C388.041 49.1529 388.9 46.9149 390.561 45.1946L389.122 43.8054ZM386.041 52C386.041 55.2863 387.05 58.0482 389.122 60.1946L390.561 58.8054C388.9 57.0851 388.041 54.8471 388.041 52H386.041ZM389.134 60.2071C391.265 62.3379 393.924 63.4 397.041 63.4V61.4C394.426 61.4 392.284 60.5288 390.549 58.7929L389.134 60.2071ZM434.142 70.9L433.421 71.593L433.43 71.6024L434.142 70.9ZM430.742 30.9L429.867 30.4154L429.865 30.4195L430.742 30.9ZM445.242 18.4L445.682 19.2979L445.683 19.2976L445.242 18.4ZM459.142 10.8L459.756 11.5893L459.768 11.58L459.78 11.5704L459.142 10.8ZM463.642 4.7L464.14 3.83254L463.169 3.27561L462.724 4.30308L463.642 4.7ZM477.242 12.5L478.208 12.7587L478.407 12.0154L477.74 11.6325L477.242 12.5ZM471.542 21.4L470.924 20.6136L470.915 20.621L471.542 21.4ZM459.142 28L459.509 28.9304L459.512 28.9292L459.142 28ZM449.642 32.7L450.223 33.5137L450.229 33.5099L449.642 32.7ZM445.642 37.5L444.723 37.1061L446.294 38.2582L445.642 37.5ZM473.342 39.2L472.664 39.9348L472.67 39.9399L473.342 39.2ZM472.842 71.9L472.161 71.1676L472.156 71.1724L472.842 71.9ZM446.942 61.5L446.262 62.2328L446.262 62.2328L446.942 61.5ZM460.542 61.6L461.235 62.3208L461.236 62.3203L460.542 61.6ZM460.442 48.8L459.749 49.5203L459.762 49.5334L459.776 49.5459L460.442 48.8ZM446.942 48.6L447.577 49.3727L447.585 49.3661L447.593 49.3593L446.942 48.6ZM454.042 77.5C445.996 77.5 439.636 75.043 434.854 70.1976L433.43 71.6024C438.649 76.8904 445.555 79.5 454.042 79.5V77.5ZM434.863 70.2071C430.138 65.2899 427.742 58.8531 427.742 50.8H425.742C425.742 59.2803 428.28 66.2434 433.421 71.5929L434.863 70.2071ZM427.742 50.8C427.742 42.4887 429.064 36.0433 431.619 31.3805L429.865 30.4195C427.087 35.4901 425.742 42.3113 425.742 50.8H427.742ZM431.617 31.3846C434.221 26.6854 438.867 22.6402 445.682 19.2979L444.802 17.5021C437.751 20.9598 432.73 25.248 429.867 30.4154L431.617 31.3846ZM445.683 19.2976C453.121 15.6452 457.858 13.0656 459.756 11.5893L458.528 10.0106C456.826 11.3344 452.297 13.8215 444.801 17.5024L445.683 19.2976ZM459.78 11.5704C461.843 9.8627 463.435 7.69792 464.56 5.09691L462.724 4.30308C461.716 6.6354 460.308 8.53729 458.505 10.0296L459.78 11.5704ZM463.145 5.56745L476.745 13.3675L477.74 11.6325L464.14 3.83254L463.145 5.56745ZM476.276 12.2413C475.327 15.7846 473.54 18.5589 470.924 20.6137L472.16 22.1863C475.145 19.8411 477.157 16.682 478.208 12.7587L476.276 12.2413ZM470.915 20.621C468.295 22.7297 464.268 24.8858 458.773 27.0708L459.512 28.9292C465.083 26.7142 469.322 24.4703 472.169 22.179L470.915 20.621ZM458.776 27.0696C454.358 28.8098 451.095 30.4135 449.056 31.8901L450.229 33.5099C452.056 32.1865 455.126 30.6568 459.509 28.9304L458.776 27.0696ZM449.061 31.8863C447.065 33.3119 445.604 35.0502 444.723 37.1061L446.561 37.8939C447.28 36.2165 448.486 34.7548 450.223 33.5137L449.061 31.8863ZM446.294 38.2582C449.412 35.5771 453.465 34.2 458.542 34.2V32.2C453.086 32.2 448.539 33.6896 444.99 36.7418L446.294 38.2582ZM458.542 34.2C463.807 34.2 468.502 36.093 472.664 39.9348L474.02 38.4652C469.516 34.307 464.344 32.2 458.542 32.2V34.2ZM472.67 39.9399C476.837 43.7284 478.942 48.7473 478.942 55.1H480.942C480.942 48.2527 478.648 42.6716 474.015 38.4601L472.67 39.9399ZM478.942 55.1C478.942 61.6384 476.679 66.9676 472.161 71.1676L473.523 72.6324C478.472 68.0324 480.942 62.1616 480.942 55.1H478.942ZM472.156 71.1724C467.715 75.3597 461.715 77.5 454.042 77.5V79.5C462.103 79.5 468.636 77.2403 473.528 72.6276L472.156 71.1724ZM446.262 62.2328C448.328 64.1511 450.877 65.1 453.842 65.1V63.1C451.341 63.1 449.29 62.3155 447.623 60.7672L446.262 62.2328ZM453.842 65.1C456.796 65.1 459.29 64.1915 461.235 62.3208L459.849 60.8792C458.328 62.3419 456.355 63.1 453.842 63.1V65.1ZM461.236 62.3203C463.235 60.3956 464.242 58.0009 464.242 55.2H462.242C462.242 57.4658 461.45 59.3378 459.849 60.8797L461.236 62.3203ZM464.242 55.2C464.242 52.3278 463.197 49.9187 461.108 48.0541L459.776 49.5459C461.421 51.0146 462.242 52.8722 462.242 55.2H464.242ZM461.136 48.0797C459.126 46.1447 456.567 45.2 453.542 45.2V47.2C456.117 47.2 458.158 47.9886 459.749 49.5203L461.136 48.0797ZM453.542 45.2C450.778 45.2 448.345 46.0803 446.291 47.8407L447.593 49.3593C449.272 47.9197 451.24 47.2 453.542 47.2V45.2ZM446.307 47.8273C444.184 49.5719 443.142 51.9693 443.142 54.9H445.142C445.142 52.4973 445.967 50.6948 447.577 49.3727L446.307 47.8273ZM443.142 54.9C443.142 57.8301 444.181 60.3005 446.262 62.2328L447.623 60.7672C445.97 59.2329 445.142 57.3033 445.142 54.9H443.142ZM531.476 33.2L530.726 33.8614L530.735 33.8717L531.476 33.2ZM531.476 70.9L530.731 70.2332L530.73 70.2338L531.476 70.9ZM500.576 72.4L501.338 71.7524L499.576 69.6795V72.4H500.576ZM500.576 97V98H501.576V97H500.576ZM483.976 97H482.976V98H483.976V97ZM483.976 27V26H482.976V27H483.976ZM500.576 27H501.576V26H500.576V27ZM500.576 31.6H499.576V34.3205L501.338 32.2476L500.576 31.6ZM503.476 59.9L502.757 60.595L503.476 59.9ZM518.676 59.9L517.957 59.205L517.957 59.205L518.676 59.9ZM518.676 44.1L517.957 44.795L517.957 44.795L518.676 44.1ZM503.476 44.1L502.757 43.405L503.476 44.1ZM514.776 26.6C521.151 26.6 526.446 29.0067 530.726 33.8613L532.226 32.5387C527.572 27.26 521.734 24.6 514.776 24.6V26.6ZM530.735 33.8717C535.082 38.6659 537.276 44.6839 537.276 52H539.276C539.276 44.2495 536.937 37.7341 532.217 32.5283L530.735 33.8717ZM537.276 52C537.276 59.316 535.082 65.3702 530.731 70.2332L532.221 71.5668C536.937 66.2965 539.276 59.7507 539.276 52H537.276ZM530.73 70.2338C526.452 75.0228 521.156 77.4 514.776 77.4V79.4C521.729 79.4 527.566 76.7772 532.222 71.5662L530.73 70.2338ZM514.776 77.4C508.952 77.4 504.517 75.4928 501.338 71.7524L499.814 73.0476C503.434 77.3072 508.467 79.4 514.776 79.4V77.4ZM499.576 72.4V97H501.576V72.4H499.576ZM500.576 96H483.976V98H500.576V96ZM484.976 97V27H482.976V97H484.976ZM483.976 28H500.576V26H483.976V28ZM499.576 27V31.6H501.576V27H499.576ZM501.338 32.2476C504.517 28.5072 508.952 26.6 514.776 26.6V24.6C508.467 24.6 503.434 26.6928 499.814 30.9523L501.338 32.2476ZM502.757 60.595C504.903 62.8154 507.709 63.9 511.076 63.9V61.9C508.176 61.9 505.915 60.9846 504.195 59.205L502.757 60.595ZM511.076 63.9C514.443 63.9 517.248 62.8154 519.395 60.595L517.957 59.205C516.236 60.9846 513.976 61.9 511.076 61.9V63.9ZM519.395 60.595C521.539 58.3764 522.576 55.4775 522.576 52H520.576C520.576 55.0558 519.679 57.4236 517.957 59.205L519.395 60.595ZM522.576 52C522.576 48.5225 521.539 45.6236 519.395 43.405L517.957 44.795C519.679 46.5764 520.576 48.9442 520.576 52H522.576ZM519.395 43.405C517.248 41.1846 514.443 40.1 511.076 40.1V42.1C513.976 42.1 516.236 43.0154 517.957 44.795L519.395 43.405ZM511.076 40.1C507.709 40.1 504.903 41.1846 502.757 43.405L504.195 44.795C505.915 43.0154 508.176 42.1 511.076 42.1V40.1ZM502.757 43.405C500.612 45.6236 499.576 48.5225 499.576 52H501.576C501.576 48.9442 502.473 46.5764 504.195 44.795L502.757 43.405ZM499.576 52C499.576 55.4775 500.612 58.3764 502.757 60.595L504.195 59.205C502.473 57.4236 501.576 55.0558 501.576 52H499.576ZM548.899 70.8L548.197 71.5117L548.201 71.5162L548.899 70.8ZM548.899 33.3L549.597 34.0162L549.602 34.0117L548.899 33.3ZM586.699 33.3L585.992 34.0072L586.001 34.0162L586.699 33.3ZM586.699 70.8L587.402 71.5117L587.402 71.5117L586.699 70.8ZM574.999 59.5L574.292 58.7929L574.286 58.7991L574.28 58.8054L574.999 59.5ZM574.999 44.5L574.28 45.1946L574.286 45.2009L574.292 45.2071L574.999 44.5ZM560.599 44.5L559.892 43.7929L559.886 43.7991L559.88 43.8054L560.599 44.5ZM560.599 59.5L559.88 60.1946L559.886 60.2009L559.892 60.2071L560.599 59.5ZM567.799 77.4C560.654 77.4 554.606 74.9646 549.597 70.0838L548.201 71.5162C553.592 76.7687 560.144 79.4 567.799 79.4V77.4ZM549.602 70.0883C544.595 65.1456 542.099 59.1364 542.099 52H540.099C540.099 59.6636 542.804 66.1877 548.197 71.5117L549.602 70.0883ZM542.099 52C542.099 44.8639 544.594 38.8906 549.597 34.0162L548.201 32.5838C542.804 37.8427 540.099 44.3361 540.099 52H542.099ZM549.602 34.0117C554.612 29.0657 560.658 26.6 567.799 26.6V24.6C560.14 24.6 553.586 27.2676 548.197 32.5883L549.602 34.0117ZM567.799 26.6C575.009 26.6 581.052 29.0672 585.992 34.0071L587.406 32.5929C582.08 27.2661 575.523 24.6 567.799 24.6V26.6ZM586.001 34.0162C591.004 38.8906 593.499 44.8639 593.499 52H595.499C595.499 44.3361 592.794 37.8427 587.397 32.5838L586.001 34.0162ZM593.499 52C593.499 59.1364 591.004 65.1456 585.997 70.0883L587.402 71.5117C592.795 66.1877 595.499 59.6636 595.499 52H593.499ZM585.997 70.0883C581.058 74.9631 575.013 77.4 567.799 77.4V79.4C575.519 79.4 582.074 76.7702 587.402 71.5117L585.997 70.0883ZM567.799 63.4C570.976 63.4 573.645 62.342 575.719 60.1946L574.28 58.8054C572.62 60.5246 570.489 61.4 567.799 61.4V63.4ZM575.706 60.2071C577.851 58.0627 578.899 55.2966 578.899 52H576.899C576.899 54.8367 576.014 57.0706 574.292 58.7929L575.706 60.2071ZM578.899 52C578.899 48.7034 577.851 45.9373 575.706 43.7929L574.292 45.2071C576.014 46.9294 576.899 49.1633 576.899 52H578.899ZM575.719 43.8054C573.645 41.658 570.976 40.6 567.799 40.6V42.6C570.489 42.6 572.62 43.4754 574.28 45.1946L575.719 43.8054ZM567.799 40.6C564.682 40.6 562.023 41.6621 559.892 43.7929L561.306 45.2071C563.042 43.4712 565.183 42.6 567.799 42.6V40.6ZM559.88 43.8054C557.807 45.9518 556.799 48.7137 556.799 52H558.799C558.799 49.1529 559.658 46.9149 561.319 45.1946L559.88 43.8054ZM556.799 52C556.799 55.2863 557.807 58.0482 559.88 60.1946L561.319 58.8054C559.658 57.0851 558.799 54.8471 558.799 52H556.799ZM559.892 60.2071C562.023 62.3379 564.682 63.4 567.799 63.4V61.4C565.183 61.4 563.042 60.5288 561.306 58.7929L559.892 60.2071ZM93.0438 102H94.0438V101H93.0438V102ZM93.0438 152V153H94.0438V152H93.0438ZM76.4438 152H75.4438V153H76.4438V152ZM76.4438 117.7H77.4438V116.7H76.4438V117.7ZM61.7438 117.7V116.7H60.7438V117.7H61.7438ZM61.7438 152V153H62.7438V152H61.7438ZM45.1438 152H44.1438V153H45.1438V152ZM45.1438 102V101H44.1438V102H45.1438ZM92.0438 102V152H94.0438V102H92.0438ZM93.0438 151H76.4438V153H93.0438V151ZM77.4438 152V117.7H75.4438V152H77.4438ZM76.4438 116.7H61.7438V118.7H76.4438V116.7ZM60.7438 117.7V152H62.7438V117.7H60.7438ZM61.7438 151H45.1438V153H61.7438V151ZM46.1438 152V102H44.1438V152H46.1438ZM45.1438 103H93.0438V101H45.1438V103ZM105.966 145.8L105.263 146.512L105.268 146.516L105.966 145.8ZM105.966 108.3L106.664 109.016L106.668 109.012L105.966 108.3ZM143.766 108.3L143.058 109.007L143.068 109.016L143.766 108.3ZM143.766 145.8L144.468 146.512L144.468 146.512L143.766 145.8ZM132.066 134.5L131.359 133.793L131.352 133.799L131.346 133.805L132.066 134.5ZM132.066 119.5L131.346 120.195L131.352 120.201L131.359 120.207L132.066 119.5ZM117.666 119.5L116.959 118.793L116.952 118.799L116.946 118.805L117.666 119.5ZM117.666 134.5L116.946 135.195L116.952 135.201L116.959 135.207L117.666 134.5ZM124.866 152.4C117.721 152.4 111.673 149.965 106.663 145.084L105.268 146.516C110.658 151.769 117.211 154.4 124.866 154.4V152.4ZM106.668 145.088C101.661 140.146 99.1656 134.136 99.1656 127H97.1656C97.1656 134.664 99.87 141.188 105.263 146.512L106.668 145.088ZM99.1656 127C99.1656 119.864 101.661 113.891 106.663 109.016L105.268 107.584C99.8704 112.843 97.1656 119.336 97.1656 127H99.1656ZM106.668 109.012C111.678 104.066 117.725 101.6 124.866 101.6V99.6C117.206 99.6 110.653 102.268 105.263 107.588L106.668 109.012ZM124.866 101.6C132.076 101.6 138.119 104.067 143.059 109.007L144.473 107.593C139.146 102.266 132.589 99.6 124.866 99.6V101.6ZM143.068 109.016C148.07 113.891 150.566 119.864 150.566 127H152.566C152.566 119.336 149.861 112.843 144.463 107.584L143.068 109.016ZM150.566 127C150.566 134.136 148.07 140.146 143.063 145.088L144.468 146.512C149.861 141.188 152.566 134.664 152.566 127H150.566ZM143.063 145.088C138.124 149.963 132.08 152.4 124.866 152.4V154.4C132.585 154.4 139.14 151.77 144.468 146.512L143.063 145.088ZM124.866 138.4C128.043 138.4 130.712 137.342 132.785 135.195L131.346 133.805C129.686 135.525 127.555 136.4 124.866 136.4V138.4ZM132.773 135.207C134.917 133.063 135.966 130.297 135.966 127H133.966C133.966 129.837 133.081 132.071 131.359 133.793L132.773 135.207ZM135.966 127C135.966 123.703 134.917 120.937 132.773 118.793L131.359 120.207C133.081 121.929 133.966 124.163 133.966 127H135.966ZM132.785 118.805C130.712 116.658 128.043 115.6 124.866 115.6V117.6C127.555 117.6 129.686 118.475 131.346 120.195L132.785 118.805ZM124.866 115.6C121.748 115.6 119.089 116.662 116.959 118.793L118.373 120.207C120.109 118.471 122.25 117.6 124.866 117.6V115.6ZM116.946 118.805C114.874 120.952 113.866 123.714 113.866 127H115.866C115.866 124.153 116.724 121.915 118.385 120.195L116.946 118.805ZM113.866 127C113.866 130.286 114.874 133.048 116.946 135.195L118.385 133.805C116.724 132.085 115.866 129.847 115.866 127H113.866ZM116.959 135.207C119.089 137.338 121.748 138.4 124.866 138.4V136.4C122.25 136.4 120.109 135.529 118.373 133.793L116.959 135.207ZM225.463 152V153H227.265L226.311 151.471L225.463 152ZM207.163 152L206.298 152.502L206.587 153H207.163V152ZM195.263 131.5L196.127 130.998L194.263 127.785V131.5H195.263ZM195.263 152V153H196.263V152H195.263ZM178.763 152H177.763V153H178.763V152ZM178.763 131.5H179.763V127.785L177.898 130.998L178.763 131.5ZM166.863 152V153H167.438L167.727 152.502L166.863 152ZM148.563 152L147.714 151.471L146.76 153H148.563V152ZM164.163 127L165.011 127.529L165.331 127.017L165.026 126.496L164.163 127ZM149.563 102V101H147.82L148.699 102.504L149.563 102ZM167.863 102L168.743 101.525L168.459 101H167.863V102ZM178.763 122.2L177.882 122.675L179.763 122.2H178.763ZM178.763 102V101H177.763V102H178.763ZM195.263 102H196.263V101H195.263V102ZM195.263 122.2H194.263L196.143 122.675L195.263 122.2ZM206.163 102V101H205.566L205.282 101.525L206.163 102ZM224.463 102L225.326 102.504L226.205 101H224.463V102ZM209.863 127L208.999 126.496L208.694 127.017L209.014 127.529L209.863 127ZM225.463 151H207.163V153H225.463V151ZM208.027 151.498L196.127 130.998L194.398 132.002L206.298 152.502L208.027 151.498ZM194.263 131.5V152H196.263V131.5H194.263ZM195.263 151H178.763V153H195.263V151ZM179.763 152V131.5H177.763V152H179.763ZM177.898 130.998L165.998 151.498L167.727 152.502L179.627 132.002L177.898 130.998ZM166.863 151H148.563V153H166.863V151ZM149.411 152.529L165.011 127.529L163.314 126.471L147.714 151.471L149.411 152.529ZM165.026 126.496L150.426 101.496L148.699 102.504L163.299 127.504L165.026 126.496ZM149.563 103H167.863V101H149.563V103ZM166.982 102.475L177.882 122.675L179.643 121.725L168.743 101.525L166.982 102.475ZM179.763 122.2V102H177.763V122.2H179.763ZM178.763 103H195.263V101H178.763V103ZM194.263 102V122.2H196.263V102H194.263ZM196.143 122.675L207.043 102.475L205.282 101.525L194.382 121.725L196.143 122.675ZM206.163 103H224.463V101H206.163V103ZM223.599 101.496L208.999 126.496L210.726 127.504L225.326 102.504L223.599 101.496ZM209.014 127.529L224.614 152.529L226.311 151.471L210.711 126.471L209.014 127.529ZM260.088 102V101H259.088V102H260.088ZM276.688 102H277.688V101H276.688V102ZM276.688 152V153H277.688V152H276.688ZM260.088 152H259.088V153H260.088V152ZM260.088 147.4H261.088V144.679L259.326 146.752L260.088 147.4ZM229.088 145.9L228.338 146.561L228.347 146.572L229.088 145.9ZM229.088 108.2L228.343 107.533L228.343 107.534L229.088 108.2ZM260.088 106.6L259.326 107.248L261.088 109.321V106.6H260.088ZM241.988 134.9L241.269 135.595L241.988 134.9ZM257.188 134.9L256.469 134.205L256.469 134.205L257.188 134.9ZM257.188 119.1L256.469 119.795L256.469 119.795L257.188 119.1ZM241.988 119.1L241.269 118.405L241.988 119.1ZM260.088 103H276.688V101H260.088V103ZM275.688 102V152H277.688V102H275.688ZM276.688 151H260.088V153H276.688V151ZM261.088 152V147.4H259.088V152H261.088ZM259.326 146.752C256.147 150.493 251.712 152.4 245.888 152.4V154.4C252.198 154.4 257.23 152.307 260.85 148.048L259.326 146.752ZM245.888 152.4C239.508 152.4 234.176 150.022 229.829 145.228L228.347 146.572C233.068 151.778 238.935 154.4 245.888 154.4V152.4ZM229.838 145.239C225.552 140.376 223.388 134.32 223.388 127H221.388C221.388 134.747 223.692 141.291 228.338 146.561L229.838 145.239ZM223.388 127C223.388 119.68 225.552 113.66 229.834 108.866L228.343 107.534C223.692 112.74 221.388 119.254 221.388 127H223.388ZM229.834 108.867C234.181 104.007 239.512 101.6 245.888 101.6V99.6C238.931 99.6 233.062 102.259 228.343 107.533L229.834 108.867ZM245.888 101.6C251.712 101.6 256.147 103.507 259.326 107.248L260.85 105.952C257.23 101.693 252.198 99.6 245.888 99.6V101.6ZM261.088 106.6V102H259.088V106.6H261.088ZM241.269 135.595C243.416 137.815 246.221 138.9 249.588 138.9V136.9C246.688 136.9 244.428 135.985 242.707 134.205L241.269 135.595ZM249.588 138.9C252.955 138.9 255.761 137.815 257.907 135.595L256.469 134.205C254.749 135.985 252.488 136.9 249.588 136.9V138.9ZM257.907 135.595C260.052 133.376 261.088 130.478 261.088 127H259.088C259.088 130.056 258.191 132.424 256.469 134.205L257.907 135.595ZM261.088 127C261.088 123.522 260.052 120.624 257.907 118.405L256.469 119.795C258.191 121.576 259.088 123.944 259.088 127H261.088ZM257.907 118.405C255.761 116.185 252.955 115.1 249.588 115.1V117.1C252.488 117.1 254.749 118.015 256.469 119.795L257.907 118.405ZM249.588 115.1C246.221 115.1 243.416 116.185 241.269 118.405L242.707 119.795C244.428 118.015 246.688 117.1 249.588 117.1V115.1ZM241.269 118.405C239.125 120.624 238.088 123.522 238.088 127H240.088C240.088 123.944 240.985 121.576 242.707 119.795L241.269 118.405ZM238.088 127C238.088 130.478 239.125 133.376 241.269 135.595L242.707 134.205C240.985 132.424 240.088 130.056 240.088 127H238.088ZM330.912 102H331.912V101H330.912V102ZM330.912 152V153H331.912V152H330.912ZM314.312 152H313.312V153H314.312V152ZM314.312 117.9H315.312V116.9H314.312V117.9ZM304.312 117.9V116.9H303.312V117.9H304.312ZM298.412 148.2L297.758 147.443L297.751 147.449L298.412 148.2ZM280.512 152H279.512V152.898L280.405 152.994L280.512 152ZM280.512 136.6L280.779 135.636L279.512 135.284V136.6H280.512ZM285.912 135.7L286.638 136.388L286.646 136.378L286.655 136.369L285.912 135.7ZM287.712 102V101H286.712V102H287.712ZM329.912 102V152H331.912V102H329.912ZM330.912 151H314.312V153H330.912V151ZM315.312 152V117.9H313.312V152H315.312ZM314.312 116.9H304.312V118.9H314.312V116.9ZM303.312 117.9V131.3H305.312V117.9H303.312ZM303.312 131.3C303.312 139.026 301.379 144.313 297.758 147.443L299.066 148.957C303.311 145.287 305.312 139.307 305.312 131.3H303.312ZM297.751 147.449C294.19 150.581 288.564 151.859 280.619 151.006L280.405 152.994C288.593 153.874 294.9 152.619 299.072 148.951L297.751 147.449ZM281.512 152V136.6H279.512V152H281.512ZM280.244 137.564C282.829 138.282 285.08 138.032 286.638 136.388L285.186 135.012C284.343 135.902 282.995 136.252 280.779 135.636L280.244 137.564ZM286.655 136.369C288.109 134.754 288.712 132.172 288.712 128.9H286.712C286.712 132.028 286.115 133.979 285.168 135.031L286.655 136.369ZM288.712 128.9V102H286.712V128.9H288.712ZM287.712 103H330.912V101H287.712V103ZM343.766 145.8L343.064 146.512L343.069 146.516L343.766 145.8ZM343.766 108.3L344.464 109.016L344.469 109.012L343.766 108.3ZM381.566 108.3L380.859 109.007L380.869 109.016L381.566 108.3ZM381.566 145.8L382.269 146.512L382.269 146.512L381.566 145.8ZM369.866 134.5L369.159 133.793L369.153 133.799L369.147 133.805L369.866 134.5ZM369.866 119.5L369.147 120.195L369.153 120.201L369.159 120.207L369.866 119.5ZM355.466 119.5L354.759 118.793L354.753 118.799L354.747 118.805L355.466 119.5ZM355.466 134.5L354.747 135.195L354.753 135.201L354.759 135.207L355.466 134.5ZM362.666 152.4C355.522 152.4 349.474 149.965 344.464 145.084L343.069 146.516C348.459 151.769 355.011 154.4 362.666 154.4V152.4ZM344.469 145.088C339.462 140.146 336.966 134.136 336.966 127H334.966C334.966 134.664 337.671 141.188 343.064 146.512L344.469 145.088ZM336.966 127C336.966 119.864 339.462 113.891 344.464 109.016L343.069 107.584C337.671 112.843 334.966 119.336 334.966 127H336.966ZM344.469 109.012C349.479 104.066 355.526 101.6 362.666 101.6V99.6C355.007 99.6 348.454 102.268 343.064 107.588L344.469 109.012ZM362.666 101.6C369.876 101.6 375.919 104.067 380.859 109.007L382.274 107.593C376.947 102.266 370.39 99.6 362.666 99.6V101.6ZM380.869 109.016C385.871 113.891 388.366 119.864 388.366 127H390.366C390.366 119.336 387.662 112.843 382.264 107.584L380.869 109.016ZM388.366 127C388.366 134.136 385.871 140.146 380.864 145.088L382.269 146.512C387.662 141.188 390.366 134.664 390.366 127H388.366ZM380.864 145.088C375.925 149.963 369.88 152.4 362.666 152.4V154.4C370.386 154.4 376.941 151.77 382.269 146.512L380.864 145.088ZM362.666 138.4C365.844 138.4 368.512 137.342 370.586 135.195L369.147 133.805C367.487 135.525 365.356 136.4 362.666 136.4V138.4ZM370.574 135.207C372.718 133.063 373.766 130.297 373.766 127H371.766C371.766 129.837 370.882 132.071 369.159 133.793L370.574 135.207ZM373.766 127C373.766 123.703 372.718 120.937 370.574 118.793L369.159 120.207C370.882 121.929 371.766 124.163 371.766 127H373.766ZM370.586 118.805C368.512 116.658 365.844 115.6 362.666 115.6V117.6C365.356 117.6 367.487 118.475 369.147 120.195L370.586 118.805ZM362.666 115.6C359.549 115.6 356.89 116.662 354.759 118.793L356.174 120.207C357.909 118.471 360.051 117.6 362.666 117.6V115.6ZM354.747 118.805C352.675 120.952 351.666 123.714 351.666 127H353.666C353.666 124.153 354.525 121.915 356.186 120.195L354.747 118.805ZM351.666 127C351.666 130.286 352.675 133.048 354.747 135.195L356.186 133.805C354.525 132.085 353.666 129.847 353.666 127H351.666ZM354.759 135.207C356.89 137.338 359.549 138.4 362.666 138.4V136.4C360.051 136.4 357.909 135.529 356.174 133.793L354.759 135.207ZM433.067 126.5L432.509 125.67L431.048 126.654L432.641 127.405L433.067 126.5ZM435.567 148.1L434.912 147.344L434.912 147.344L435.567 148.1ZM394.667 152H393.667V153H394.667V152ZM394.667 102V101H393.667V102H394.667ZM433.767 105.9L434.422 105.144L434.422 105.144L433.767 105.9ZM410.567 114.4V113.4H409.567V114.4H410.567ZM410.567 121H409.567V122H410.567V121ZM410.567 132.6V131.6H409.567V132.6H410.567ZM410.567 139.4H409.567V140.4H410.567V139.4ZM432.641 127.405C434.833 128.438 436.423 129.797 437.471 131.458C438.52 133.121 439.067 135.153 439.067 137.6H441.067C441.067 134.847 440.448 132.429 439.163 130.392C437.878 128.353 435.968 126.762 433.494 125.595L432.641 127.405ZM439.067 137.6C439.067 141.745 437.668 144.956 434.912 147.344L436.222 148.856C439.467 146.044 441.067 142.255 441.067 137.6H439.067ZM434.912 147.344C432.158 149.731 428.095 151 422.567 151V153C428.373 153 432.976 151.669 436.222 148.856L434.912 147.344ZM422.567 151H394.667V153H422.567V151ZM395.667 152V102H393.667V152H395.667ZM394.667 103H420.867V101H394.667V103ZM420.867 103C426.325 103 430.356 104.267 433.112 106.656L434.422 105.144C431.178 102.333 426.61 101 420.867 101V103ZM433.112 106.656C435.868 109.044 437.267 112.255 437.267 116.4H439.267C439.267 111.745 437.667 107.956 434.422 105.144L433.112 106.656ZM437.267 116.4C437.267 120.488 435.682 123.534 432.509 125.67L433.626 127.33C437.385 124.799 439.267 121.112 439.267 116.4H437.267ZM418.367 113.4H410.567V115.4H418.367V113.4ZM409.567 114.4V121H411.567V114.4H409.567ZM410.567 122H418.367V120H410.567V122ZM418.367 122C419.807 122 421.073 121.716 421.992 120.981C422.954 120.211 423.367 119.087 423.367 117.8H421.367C421.367 118.646 421.114 119.122 420.742 119.419C420.328 119.75 419.594 120 418.367 120V122ZM423.367 117.8C423.367 116.466 422.967 115.298 422.015 114.488C421.094 113.705 419.819 113.4 418.367 113.4V115.4C419.583 115.4 420.307 115.662 420.72 116.012C421.1 116.336 421.367 116.867 421.367 117.8H423.367ZM419.667 140.4C421.096 140.4 422.355 140.082 423.26 139.269C424.186 138.438 424.567 137.25 424.567 135.9H422.567C422.567 136.883 422.298 137.445 421.924 137.781C421.53 138.135 420.838 138.4 419.667 138.4V140.4ZM424.567 135.9C424.567 134.598 424.175 133.454 423.238 132.662C422.334 131.896 421.084 131.6 419.667 131.6V133.6C420.85 133.6 421.551 133.854 421.946 134.188C422.31 134.496 422.567 135.002 422.567 135.9H424.567ZM419.667 131.6H410.567V133.6H419.667V131.6ZM409.567 132.6V139.4H411.567V132.6H409.567ZM410.567 140.4H419.667V138.4H410.567V140.4ZM479.92 102V101H478.92V102H479.92ZM496.52 102H497.52V101H496.52V102ZM496.52 152V153H497.52V152H496.52ZM479.92 152H478.92V153H479.92V152ZM479.92 147.4H480.92V144.679L479.158 146.752L479.92 147.4ZM448.92 145.9L448.17 146.561L448.179 146.572L448.92 145.9ZM448.92 108.2L448.175 107.533L448.175 107.534L448.92 108.2ZM479.92 106.6L479.158 107.248L480.92 109.321V106.6H479.92ZM461.82 134.9L461.101 135.595L461.82 134.9ZM477.02 134.9L476.301 134.205L476.301 134.205L477.02 134.9ZM477.02 119.1L476.301 119.795L476.301 119.795L477.02 119.1ZM461.82 119.1L461.101 118.405L461.82 119.1ZM479.92 103H496.52V101H479.92V103ZM495.52 102V152H497.52V102H495.52ZM496.52 151H479.92V153H496.52V151ZM480.92 152V147.4H478.92V152H480.92ZM479.158 146.752C475.979 150.493 471.544 152.4 465.72 152.4V154.4C472.03 154.4 477.062 152.307 480.682 148.048L479.158 146.752ZM465.72 152.4C459.34 152.4 454.008 150.022 449.661 145.228L448.179 146.572C452.9 151.778 458.767 154.4 465.72 154.4V152.4ZM449.67 145.239C445.384 140.376 443.22 134.32 443.22 127H441.22C441.22 134.747 443.524 141.291 448.17 146.561L449.67 145.239ZM443.22 127C443.22 119.68 445.384 113.66 449.666 108.866L448.175 107.534C443.524 112.74 441.22 119.254 441.22 127H443.22ZM449.666 108.867C454.013 104.007 459.345 101.6 465.72 101.6V99.6C458.763 99.6 452.894 102.259 448.175 107.533L449.666 108.867ZM465.72 101.6C471.544 101.6 475.979 103.507 479.158 107.248L480.682 105.952C477.062 101.693 472.03 99.6 465.72 99.6V101.6ZM480.92 106.6V102H478.92V106.6H480.92ZM461.101 135.595C463.248 137.815 466.053 138.9 469.42 138.9V136.9C466.52 136.9 464.26 135.985 462.539 134.205L461.101 135.595ZM469.42 138.9C472.787 138.9 475.593 137.815 477.739 135.595L476.301 134.205C474.581 135.985 472.32 136.9 469.42 136.9V138.9ZM477.739 135.595C479.884 133.376 480.92 130.478 480.92 127H478.92C478.92 130.056 478.023 132.424 476.301 134.205L477.739 135.595ZM480.92 127C480.92 123.522 479.884 120.624 477.739 118.405L476.301 119.795C478.023 121.576 478.92 123.944 478.92 127H480.92ZM477.739 118.405C475.593 116.185 472.787 115.1 469.42 115.1V117.1C472.32 117.1 474.581 118.015 476.301 119.795L477.739 118.405ZM469.42 115.1C466.053 115.1 463.248 116.185 461.101 118.405L462.539 119.795C464.26 118.015 466.52 117.1 469.42 117.1V115.1ZM461.101 118.405C458.957 120.624 457.92 123.522 457.92 127H459.92C459.92 123.944 460.817 121.576 462.539 119.795L461.101 118.405ZM457.92 127C457.92 130.478 458.957 133.376 461.101 135.595L462.539 134.205C460.817 132.424 459.92 130.056 459.92 127H457.92ZM545.544 102H546.544V101H545.544V102ZM545.544 117.9V118.9H546.544V117.9H545.544ZM531.244 117.9V116.9H530.244V117.9H531.244ZM531.244 152V153H532.244V152H531.244ZM514.644 152H513.644V153H514.644V152ZM514.644 117.9H515.644V116.9H514.644V117.9ZM500.144 117.9H499.144V118.9H500.144V117.9ZM500.144 102V101H499.144V102H500.144ZM544.544 102V117.9H546.544V102H544.544ZM545.544 116.9H531.244V118.9H545.544V116.9ZM530.244 117.9V152H532.244V117.9H530.244ZM531.244 151H514.644V153H531.244V151ZM515.644 152V117.9H513.644V152H515.644ZM514.644 116.9H500.144V118.9H514.644V116.9ZM501.144 117.9V102H499.144V117.9H501.144ZM500.144 103H545.544V101H500.144V103ZM588.216 121L587.538 121.734L587.545 121.741L588.216 121ZM588.216 147.2L588.895 147.935L588.895 147.934L588.216 147.2ZM549.116 152H548.116V153H549.116V152ZM549.116 102V101H548.116V102H549.116ZM565.716 102H566.716V101H565.716V102ZM565.716 116.1H564.716V117.1H565.716V116.1ZM576.116 137L576.792 137.737L576.792 137.737L576.116 137ZM576.116 131.1L575.441 131.837L575.441 131.837L576.116 131.1ZM565.716 130V129H564.716V130H565.716ZM565.716 138.1H564.716V139.1H565.716V138.1ZM573.916 117.1C579.73 117.1 584.232 118.678 587.538 121.734L588.895 120.266C585.134 116.789 580.103 115.1 573.916 115.1V117.1ZM587.545 121.741C590.838 124.723 592.516 128.77 592.516 134H594.516C594.516 128.297 592.662 123.677 588.888 120.259L587.545 121.741ZM592.516 134C592.516 139.3 590.835 143.417 587.538 146.466L588.895 147.934C592.665 144.449 594.516 139.766 594.516 134H592.516ZM587.538 146.465C584.304 149.45 579.806 151 573.916 151V153C580.16 153 585.195 151.35 588.895 147.935L587.538 146.465ZM573.916 151H549.116V153H573.916V151ZM550.116 152V102H548.116V152H550.116ZM549.116 103H565.716V101H549.116V103ZM564.716 102V116.1H566.716V102H564.716ZM565.716 117.1H573.916V115.1H565.716V117.1ZM572.916 139.1C574.44 139.1 575.768 138.676 576.792 137.737L575.441 136.263C574.865 136.791 574.06 137.1 572.916 137.1V139.1ZM576.792 137.737C577.834 136.782 578.316 135.496 578.316 134H576.316C576.316 135.038 575.999 135.751 575.441 136.263L576.792 137.737ZM578.316 134C578.316 132.553 577.822 131.307 576.792 130.363L575.441 131.837C576.011 132.36 576.316 133.047 576.316 134H578.316ZM576.792 130.363C575.768 129.424 574.44 129 572.916 129V131C574.06 131 574.865 131.309 575.441 131.837L576.792 130.363ZM572.916 129H565.716V131H572.916V129ZM564.716 130V138.1H566.716V130H564.716ZM565.716 139.1H572.916V137.1H565.716V139.1ZM301.516 201.5L300.958 200.67L299.497 201.654L301.09 202.405L301.516 201.5ZM304.016 223.1L303.361 222.344L303.361 222.344L304.016 223.1ZM263.116 227H262.116V228H263.116V227ZM263.116 177V176H262.116V177H263.116ZM302.216 180.9L302.871 180.144L302.871 180.144L302.216 180.9ZM279.016 189.4V188.4H278.016V189.4H279.016ZM279.016 196H278.016V197H279.016V196ZM279.016 207.6V206.6H278.016V207.6H279.016ZM279.016 214.4H278.016V215.4H279.016V214.4ZM301.09 202.405C303.282 203.438 304.873 204.797 305.921 206.458C306.969 208.121 307.516 210.153 307.516 212.6H309.516C309.516 209.847 308.897 207.429 307.612 205.392C306.327 203.353 304.417 201.762 301.943 200.595L301.09 202.405ZM307.516 212.6C307.516 216.745 306.117 219.956 303.361 222.344L304.671 223.856C307.916 221.044 309.516 217.255 309.516 212.6H307.516ZM303.361 222.344C300.608 224.731 296.544 226 291.016 226V228C296.822 228 301.425 226.669 304.671 223.856L303.361 222.344ZM291.016 226H263.116V228H291.016V226ZM264.116 227V177H262.116V227H264.116ZM263.116 178H289.316V176H263.116V178ZM289.316 178C294.774 178 298.806 179.267 301.561 181.656L302.871 180.144C299.627 177.333 295.059 176 289.316 176V178ZM301.561 181.656C304.317 184.044 305.716 187.255 305.716 191.4H307.716C307.716 186.745 306.116 182.956 302.871 180.144L301.561 181.656ZM305.716 191.4C305.716 195.488 304.132 198.534 300.958 200.67L302.075 202.33C305.835 199.799 307.716 196.112 307.716 191.4H305.716ZM286.816 188.4H279.016V190.4H286.816V188.4ZM278.016 189.4V196H280.016V189.4H278.016ZM279.016 197H286.816V195H279.016V197ZM286.816 197C288.257 197 289.522 196.716 290.441 195.981C291.403 195.211 291.816 194.087 291.816 192.8H289.816C289.816 193.646 289.563 194.122 289.192 194.419C288.778 194.75 288.043 195 286.816 195V197ZM291.816 192.8C291.816 191.466 291.416 190.298 290.464 189.488C289.543 188.705 288.268 188.4 286.816 188.4V190.4C288.032 190.4 288.757 190.662 289.169 191.012C289.55 191.336 289.816 191.867 289.816 192.8H291.816ZM288.116 215.4C289.545 215.4 290.804 215.082 291.709 214.269C292.635 213.438 293.016 212.25 293.016 210.9H291.016C291.016 211.883 290.748 212.445 290.373 212.781C289.979 213.135 289.287 213.4 288.116 213.4V215.4ZM293.016 210.9C293.016 209.598 292.624 208.454 291.687 207.662C290.783 206.896 289.534 206.6 288.116 206.6V208.6C289.299 208.6 290 208.854 290.395 209.188C290.759 209.496 291.016 210.002 291.016 210.9H293.016ZM288.116 206.6H279.016V208.6H288.116V206.6ZM278.016 207.6V214.4H280.016V207.6H278.016ZM279.016 215.4H288.116V213.4H279.016V215.4ZM379.426 163.9L378.734 164.622L378.734 164.622L379.426 163.9ZM379.426 199.1L378.734 198.378L378.734 198.378L379.426 199.1ZM352.326 206V205H351.326V206H352.326ZM352.326 227V228H353.326V227H352.326ZM334.426 227H333.426V228H334.426V227ZM334.426 157V156H333.426V157H334.426ZM366.626 186.9L365.919 186.193L365.91 186.202L365.902 186.21L366.626 186.9ZM366.626 176.2L365.902 176.89L365.918 176.907L365.936 176.924L366.626 176.2ZM352.326 174.1V173.1H351.326V174.1H352.326ZM352.326 189H351.326V190H352.326V189ZM361.626 158C368.452 158 374.133 160.212 378.734 164.622L380.118 163.178C375.119 158.388 368.932 156 361.626 156V158ZM378.734 164.622C383.322 169.019 385.626 174.617 385.626 181.5H387.626C387.626 174.116 385.13 167.981 380.118 163.178L378.734 164.622ZM385.626 181.5C385.626 188.383 383.322 193.981 378.734 198.378L380.118 199.822C385.13 195.019 387.626 188.884 387.626 181.5H385.626ZM378.734 198.378C374.133 202.788 368.452 205 361.626 205V207C368.932 207 375.119 204.612 380.118 199.822L378.734 198.378ZM361.626 205H352.326V207H361.626V205ZM351.326 206V227H353.326V206H351.326ZM352.326 226H334.426V228H352.326V226ZM335.426 227V157H333.426V227H335.426ZM334.426 158H361.626V156H334.426V158ZM361.626 190C363.889 190 365.821 189.195 367.35 187.59L365.902 186.21C364.764 187.405 363.363 188 361.626 188V190ZM367.333 187.607C368.942 185.998 369.726 183.933 369.726 181.5H367.726C367.726 183.467 367.109 185.002 365.919 186.193L367.333 187.607ZM369.726 181.5C369.726 179.068 368.942 177.025 367.315 175.476L365.936 176.924C367.11 178.042 367.726 179.532 367.726 181.5H369.726ZM367.35 175.51C365.821 173.905 363.889 173.1 361.626 173.1V175.1C363.363 175.1 364.764 175.695 365.902 176.89L367.35 175.51ZM361.626 173.1H352.326V175.1H361.626V173.1ZM351.326 174.1V189H353.326V174.1H351.326ZM352.326 190H361.626V188H352.326V190ZM405.905 170.1L406.613 170.807L406.613 170.807L405.905 170.1ZM392.405 170.1L391.686 170.795L391.698 170.807L391.711 170.819L392.405 170.1ZM392.405 156.6L391.711 155.881L391.705 155.887L391.698 155.893L392.405 156.6ZM405.905 156.6L405.198 157.307L405.205 157.313L405.211 157.319L405.905 156.6ZM390.905 227H389.905V228H390.905V227ZM390.905 177V176H389.905V177H390.905ZM407.505 177H408.505V176H407.505V177ZM407.505 227V228H408.505V227H407.505ZM405.198 169.393C403.516 171.075 401.536 171.9 399.205 171.9V173.9C402.075 173.9 404.562 172.858 406.613 170.807L405.198 169.393ZM399.205 171.9C396.874 171.9 394.854 171.074 393.1 169.381L391.711 170.819C393.824 172.859 396.337 173.9 399.205 173.9V171.9ZM393.125 169.405C391.431 167.652 390.605 165.631 390.605 163.3H388.605C388.605 166.169 389.646 168.682 391.686 170.795L393.125 169.405ZM390.605 163.3C390.605 160.97 391.43 158.989 393.113 157.307L391.698 155.893C389.647 157.944 388.605 160.43 388.605 163.3H390.605ZM393.1 157.319C394.854 155.626 396.874 154.8 399.205 154.8V152.8C396.337 152.8 393.824 153.841 391.711 155.881L393.1 157.319ZM399.205 154.8C401.536 154.8 403.516 155.625 405.198 157.307L406.613 155.893C404.562 153.842 402.075 152.8 399.205 152.8V154.8ZM405.211 157.319C406.956 159.005 407.805 160.981 407.805 163.3H409.805C409.805 160.419 408.721 157.929 406.6 155.881L405.211 157.319ZM407.805 163.3C407.805 165.62 406.955 167.636 405.198 169.393L406.613 170.807C408.723 168.697 409.805 166.18 409.805 163.3H407.805ZM391.905 227V177H389.905V227H391.905ZM390.905 178H407.505V176H390.905V178ZM406.505 177V227H408.505V177H406.505ZM407.505 226H390.905V228H407.505V226ZM458.777 181.2L458.038 181.873L458.044 181.88L458.051 181.887L458.777 181.2ZM463.977 227V228H464.977V227H463.977ZM447.377 227H446.377V228H447.377V227ZM445.277 193.3L444.57 194.007L444.579 194.016L444.588 194.024L445.277 193.3ZM433.777 193.7L433.04 193.024L433.039 193.026L433.777 193.7ZM431.677 227V228H432.677V227H431.677ZM415.077 227H414.077V228H415.077V227ZM415.077 177V176H414.077V177H415.077ZM431.677 177H432.677V176H431.677V177ZM431.677 182H430.677V185.161L432.495 182.575L431.677 182ZM445.577 176.6C450.718 176.6 454.842 178.364 458.038 181.873L459.517 180.527C455.913 176.57 451.237 174.6 445.577 174.6V176.6ZM458.051 181.887C461.285 185.308 462.977 190.325 462.977 197.1H464.977C464.977 190.008 463.203 184.425 459.504 180.513L458.051 181.887ZM462.977 197.1V227H464.977V197.1H462.977ZM463.977 226H447.377V228H463.977V226ZM448.377 227V199.2H446.377V227H448.377ZM448.377 199.2C448.377 196.424 447.626 194.156 445.967 192.576L444.588 194.024C445.728 195.11 446.377 196.776 446.377 199.2H448.377ZM445.984 192.593C444.427 191.035 442.352 190.3 439.877 190.3V192.3C441.936 192.3 443.461 192.898 444.57 194.007L445.984 192.593ZM439.877 190.3C437.057 190.3 434.733 191.177 433.04 193.024L434.514 194.376C435.755 193.023 437.497 192.3 439.877 192.3V190.3ZM433.039 193.026C431.412 194.807 430.677 197.32 430.677 200.4H432.677C432.677 197.613 433.342 195.659 434.516 194.374L433.039 193.026ZM430.677 200.4V227H432.677V200.4H430.677ZM431.677 226H415.077V228H431.677V226ZM416.077 227V177H414.077V227H416.077ZM415.077 178H431.677V176H415.077V178ZM430.677 177V182H432.677V177H430.677ZM432.495 182.575C435.269 178.631 439.562 176.6 445.577 176.6V174.6C439.06 174.6 434.086 176.836 430.859 181.425L432.495 182.575ZM501.988 192.9V193.9H502.988V192.9H501.988ZM491.588 192.9V191.9H490.588V192.9H491.588ZM493.988 211.5L494.304 210.551L494.304 210.551L493.988 211.5ZM501.988 212H502.988V210.945L501.934 211.001L501.988 212ZM501.988 227L502.107 227.993L502.988 227.886V227H501.988ZM480.988 224.3L480.379 225.094L480.386 225.099L480.394 225.105L480.988 224.3ZM474.988 192.9H475.988V191.9H474.988V192.9ZM467.488 192.9H466.488V193.9H467.488V192.9ZM467.488 177V176H466.488V177H467.488ZM474.988 177V178H475.988V177H474.988ZM474.988 168L474.699 167.042L473.988 167.257V168H474.988ZM491.588 163H492.588V161.654L491.299 162.042L491.588 163ZM491.588 177H490.588V178H491.588V177ZM501.988 177H502.988V176H501.988V177ZM501.988 191.9H491.588V193.9H501.988V191.9ZM490.588 192.9V207.4H492.588V192.9H490.588ZM490.588 207.4C490.588 208.612 490.806 209.695 491.324 210.58C491.855 211.487 492.658 212.111 493.671 212.449L494.304 210.551C493.717 210.356 493.32 210.03 493.051 209.57C492.769 209.088 492.588 208.388 492.588 207.4H490.588ZM493.671 212.449C495.465 213.047 498.298 213.199 502.041 212.999L501.934 211.001C498.211 211.201 495.71 211.02 494.304 210.551L493.671 212.449ZM500.988 212V227H502.988V212H500.988ZM501.868 226.007C491.973 227.203 485.318 226.252 481.581 223.495L480.394 225.105C484.791 228.348 492.136 229.197 502.107 227.993L501.868 226.007ZM481.596 223.506C477.957 220.717 475.988 215.603 475.988 207.8H473.988C473.988 215.864 476.018 221.75 480.379 225.094L481.596 223.506ZM475.988 207.8V192.9H473.988V207.8H475.988ZM474.988 191.9H467.488V193.9H474.988V191.9ZM468.488 192.9V177H466.488V192.9H468.488ZM467.488 178H474.988V176H467.488V178ZM475.988 177V168H473.988V177H475.988ZM475.276 168.958L491.876 163.958L491.299 162.042L474.699 167.042L475.276 168.958ZM490.588 163V177H492.588V163H490.588ZM491.588 178H501.988V176H491.588V178ZM500.988 177V192.9H502.988V177H500.988ZM521.58 208.1V207.1H520.09L520.655 208.479L521.58 208.1ZM541.88 210.7L542.454 209.881L541.786 209.413L541.193 209.974L541.88 210.7ZM553.88 219.1L554.663 219.723L555.325 218.891L554.454 218.281L553.88 219.1ZM511.98 221L511.278 221.712L511.288 221.721L511.98 221ZM511.88 183.2L511.169 182.498L511.169 182.498L511.88 183.2ZM549.48 183.1L548.764 183.797L549.48 183.1ZM556.08 208.1V209.1H556.868L557.053 208.335L556.08 208.1ZM521.38 196.6L520.423 196.313L520.036 197.6H521.38V196.6ZM540.58 196.6V197.6H541.906L541.542 196.325L540.58 196.6ZM520.655 208.479C521.572 210.718 523.076 212.423 525.152 213.553C527.209 214.674 529.771 215.2 532.78 215.2V213.2C529.989 213.2 527.785 212.71 526.109 211.797C524.451 210.894 523.255 209.549 522.506 207.721L520.655 208.479ZM532.78 215.2C536.619 215.2 539.903 213.947 542.568 211.426L541.193 209.974C538.924 212.12 536.142 213.2 532.78 213.2V215.2ZM541.307 211.519L553.307 219.919L554.454 218.281L542.454 209.881L541.307 211.519ZM553.098 218.477C548.391 224.393 541.539 227.4 532.38 227.4V229.4C542.022 229.4 549.504 226.207 554.663 219.723L553.098 218.477ZM532.38 227.4C524.12 227.4 517.586 225 512.673 220.279L511.288 221.721C516.642 226.866 523.708 229.4 532.38 229.4V227.4ZM512.683 220.288C507.82 215.49 505.38 209.453 505.38 202.1H503.38C503.38 209.947 506.007 216.51 511.278 221.712L512.683 220.288ZM505.38 202.1C505.38 194.813 507.789 188.77 512.592 183.902L511.169 182.498C505.972 187.763 503.38 194.321 503.38 202.1H505.38ZM512.592 183.902C517.387 179.044 523.489 176.6 530.98 176.6V174.6C523.005 174.6 516.374 177.223 511.169 182.498L512.592 183.902ZM530.98 176.6C538.198 176.6 544.1 179.005 548.764 183.797L550.197 182.403C545.128 177.195 538.696 174.6 530.98 174.6V176.6ZM548.764 183.797C553.433 188.595 555.78 194.604 555.78 201.9H557.78C557.78 194.129 555.261 187.605 550.197 182.403L548.764 183.797ZM555.78 201.9C555.78 204.029 555.555 206.016 555.108 207.865L557.053 208.335C557.54 206.317 557.78 204.171 557.78 201.9H555.78ZM556.08 207.1H521.58V209.1H556.08V207.1ZM521.38 197.6H540.58V195.6H521.38V197.6ZM541.542 196.325C540.83 193.833 539.609 191.875 537.828 190.548C536.048 189.222 533.805 188.6 531.18 188.6V190.6C533.489 190.6 535.28 191.144 536.633 192.152C537.985 193.159 538.998 194.7 539.619 196.875L541.542 196.325ZM531.18 188.6C528.464 188.6 526.144 189.219 524.299 190.536C522.449 191.858 521.172 193.814 520.423 196.313L522.338 196.887C522.989 194.72 524.045 193.176 525.462 192.164C526.884 191.148 528.764 190.6 531.18 190.6V188.6ZM578.509 186.3H577.509L579.471 186.575L578.509 186.3ZM584.109 178.7L584.65 179.541L584.65 179.541L584.109 178.7ZM593.509 176H594.509V175H593.509V176ZM593.509 194.4L593.353 195.388L594.509 195.57V194.4H593.509ZM583.109 196.5L582.571 195.657L582.563 195.662L583.109 196.5ZM578.509 227V228H579.509V227H578.509ZM561.909 227H560.909V228H561.909V227ZM561.909 177V176H560.909V177H561.909ZM578.509 177H579.509V176H578.509V177ZM579.471 186.575C580.339 183.536 582.059 181.207 584.65 179.541L583.569 177.859C580.56 179.793 578.546 182.53 577.548 186.025L579.471 186.575ZM584.65 179.541C587.282 177.849 590.226 177 593.509 177V175C589.859 175 586.537 175.951 583.569 177.859L584.65 179.541ZM592.509 176V194.4H594.509V176H592.509ZM593.665 193.412C589.633 192.776 585.918 193.521 582.571 195.657L583.647 197.343C586.567 195.479 589.785 194.824 593.353 195.388L593.665 193.412ZM582.563 195.662C579.144 197.892 577.509 201.521 577.509 206.3H579.509C579.509 202.013 580.941 199.108 583.656 197.338L582.563 195.662ZM577.509 206.3V227H579.509V206.3H577.509ZM578.509 226H561.909V228H578.509V226ZM562.909 227V177H560.909V227H562.909ZM561.909 178H578.509V176H561.909V178ZM577.509 177V186.3H579.509V177H577.509Z" fill="#A8AAB9" mask="url(#path-1-outside-1_310_4)"/>
</svg>
